<?xml version="1.0" encoding="utf-8"?>
<!-- Generator: Adobe Illustrator 16.0.3, SVG Export Plug-In . SVG Version: 6.00 Build 0)  -->
<!DOCTYPE svg PUBLIC "-//W3C//DTD SVG 1.1//EN" "http://www.w3.org/Graphics/SVG/1.1/DTD/svg11.dtd">
<svg xmlns="http://www.w3.org/2000/svg" xmlns:xlink="http://www.w3.org/1999/xlink" version="1.1" id="Warstwa_1" x="0px" y="0px" width="650px" height="300px" viewBox="0 0 650 300" xml:space="preserve">
<polyline fill="#00B4D1" points="0,300 0,0 650,0 650,300 "/>
<g>
	<path fill="#414042" d="M387.958,252.047h15.06c0.264,0,0.475-0.371,0.475-0.833c0-0.46-0.211-0.832-0.475-0.832h-15.06   c-0.262,0-0.472,0.372-0.472,0.832C387.486,251.676,387.696,252.047,387.958,252.047z"/>
</g>
<g>
	<path fill="#414042" d="M466.105,143.786h15.059c0.264,0,0.476-0.371,0.476-0.832c0-0.46-0.212-0.833-0.476-0.833h-15.059   c-0.262,0-0.472,0.373-0.472,0.833C465.634,143.415,465.844,143.786,466.105,143.786z"/>
</g>
<g>
	<path fill="#414042" d="M465.343,69.11h46.749c0.819,0,1.477-0.371,1.477-0.833c0-0.46-0.657-0.832-1.477-0.832h-46.749   c-0.812,0-1.465,0.372-1.465,0.832C463.878,68.739,464.531,69.11,465.343,69.11z"/>
</g>
<g>
	<path fill="#414042" d="M465.168,76.36h18.527c0.325,0,0.585-0.371,0.585-0.833c0-0.46-0.26-0.833-0.585-0.833h-18.527   c-0.321,0-0.58,0.373-0.58,0.833C464.588,75.989,464.847,76.36,465.168,76.36z"/>
</g>
<g>
	<path fill="#414042" d="M362.15,245.274h38.088c0.666,0,1.201-0.369,1.201-0.831c0-0.46-0.535-0.833-1.201-0.833H362.15   c-0.659,0-1.191,0.373-1.191,0.833C360.959,244.905,361.491,245.274,362.15,245.274z"/>
</g>
<g>
	<path fill="#414042" d="M283.613,264.791h66.696c1.165,0,2.102-0.369,2.102-0.831c0-0.46-0.937-0.834-2.102-0.834h-66.696   c-1.154,0-2.087,0.374-2.087,0.834C281.526,264.422,282.459,264.791,283.613,264.791z"/>
</g>
<g>
	<path fill="#414042" d="M568.985,153.364h27.562c0.482,0,0.869-0.369,0.869-0.831c0-0.46-0.387-0.833-0.869-0.833h-27.562   c-0.478,0-0.862,0.373-0.862,0.833C568.123,152.995,568.508,153.364,568.985,153.364z"/>
</g>
<g>
	<path fill="#414042" d="M530.728,191.351h27.562c0.481,0,0.869-0.369,0.869-0.831c0-0.46-0.388-0.833-0.869-0.833h-27.562   c-0.478,0-0.862,0.373-0.862,0.833C529.865,190.981,530.25,191.351,530.728,191.351z"/>
</g>
<g>
	<path fill="#414042" d="M524.754,191.351h-17.352c-0.303,0-0.546-0.369-0.546-0.831c0-0.46,0.243-0.833,0.546-0.833h17.352   c0.301,0,0.543,0.373,0.543,0.833C525.297,190.981,525.055,191.351,524.754,191.351z"/>
</g>
<g>
	<path fill="#414042" d="M402.618,116.199h41.323c0.722,0,1.303-0.37,1.303-0.831c0-0.46-0.581-0.833-1.303-0.833h-41.323   c-0.716,0-1.294,0.374-1.294,0.833C401.324,115.83,401.902,116.199,402.618,116.199z"/>
</g>
<g>
	<path fill="#414042" d="M118.533,145.955h41.323c0.721,0,1.303-0.369,1.303-0.831c0-0.46-0.582-0.833-1.303-0.833h-41.323   c-0.716,0-1.294,0.373-1.294,0.833C117.239,145.586,117.817,145.955,118.533,145.955z"/>
</g>
<g>
	<path fill="#414042" d="M92.63,226.854h34.743c0.606,0,1.095-0.37,1.095-0.831s-0.489-0.834-1.095-0.834H92.63   c-0.602,0-1.087,0.373-1.087,0.834S92.029,226.854,92.63,226.854z"/>
</g>
<g>
	<path fill="#414042" d="M102.42,234.059h25.252c0.44,0,0.796-0.37,0.796-0.831c0-0.46-0.355-0.834-0.796-0.834H102.42   c-0.437,0-0.79,0.374-0.79,0.834C101.63,233.688,101.983,234.059,102.42,234.059z"/>
</g>
<g>
	<path fill="#414042" d="M113.474,242.506h14.537c0.254,0,0.458-0.369,0.458-0.831c0-0.46-0.204-0.833-0.458-0.833h-14.537   c-0.251,0-0.455,0.373-0.455,0.833C113.019,242.137,113.222,242.506,113.474,242.506z"/>
</g>
<g>
	<path fill="#414042" d="M464.596,116.199H449.96c-0.256,0-0.461-0.37-0.461-0.831c0-0.46,0.205-0.833,0.461-0.833h14.636   c0.253,0,0.458,0.374,0.458,0.833C465.054,115.83,464.849,116.199,464.596,116.199z"/>
</g>
<g>
	<path fill="#414042" d="M584.926,161.432h-16.288c-0.286,0-0.515-0.37-0.515-0.831c0-0.46,0.229-0.834,0.515-0.834h16.288   c0.282,0,0.51,0.374,0.51,0.834C585.436,161.062,585.208,161.432,584.926,161.432z"/>
</g>
<g>
	<path fill="#414042" d="M152.604,152.061h19.944c0.349,0,0.629-0.371,0.629-0.832c0-0.459-0.28-0.834-0.629-0.834h-19.944   c-0.345,0-0.624,0.375-0.624,0.834C151.979,151.689,152.259,152.061,152.604,152.061z"/>
</g>
<g>
	<path fill="#414042" d="M109.948,63.651h39.113c0.684,0,1.234-0.371,1.234-0.833c0-0.458-0.55-0.833-1.234-0.833h-39.113   c-0.676,0-1.224,0.375-1.224,0.833C108.725,63.28,109.272,63.651,109.948,63.651z"/>
</g>
<g>
	<path fill="#414042" d="M137.073,69.591h12.818c0.224,0,0.404-0.371,0.404-0.832c0-0.459-0.18-0.834-0.404-0.834h-12.818   c-0.221,0-0.401,0.375-0.401,0.834C136.672,69.22,136.852,69.591,137.073,69.591z"/>
</g>
<g>
	<path fill="#414042" d="M148.231,152.061h-15.519c-0.271,0-0.49-0.371-0.49-0.832c0-0.459,0.218-0.834,0.49-0.834h15.519   c0.268,0,0.485,0.375,0.485,0.834C148.716,151.689,148.499,152.061,148.231,152.061z"/>
</g>
<g>
	<path fill="#414042" d="M222.047,199.672h-15.519c-0.271,0-0.489-0.371-0.489-0.833c0-0.459,0.218-0.833,0.489-0.833h15.519   c0.269,0,0.486,0.374,0.486,0.833C222.533,199.301,222.315,199.672,222.047,199.672z"/>
</g>
<g>
	<path fill="#414042" d="M293.655,231.448h-32.667c-0.572,0-1.031-0.371-1.031-0.832c0-0.459,0.459-0.834,1.031-0.834h32.667   c0.565,0,1.023,0.375,1.023,0.834C294.678,231.077,294.221,231.448,293.655,231.448z"/>
</g>
<g>
	<path fill="#414042" d="M568.123,194.193l-3.673-3.676l3.673-3.674l3.672,3.674L568.123,194.193z M566.965,190.518l1.158,1.16   l1.158-1.16l-1.158-1.157L566.965,190.518z"/>
</g>
<g>
	<path fill="#414042" d="M347.538,255.721l-3.672-3.676l3.672-3.673l3.673,3.673L347.538,255.721z M346.381,252.045l1.157,1.16   l1.159-1.16l-1.159-1.157L346.381,252.045z"/>
</g>
<g>
	<path fill="#414042" d="M121.864,214.217l-3.672-3.676l3.672-3.673l3.672,3.673L121.864,214.217z M120.706,210.541l1.158,1.16   l1.159-1.16l-1.159-1.157L120.706,210.541z"/>
</g>
<g>
	<path fill="#414042" d="M132.179,87.724l-3.672-3.676l3.672-3.673l3.672,3.673L132.179,87.724z M131.021,84.048l1.157,1.16   l1.159-1.16l-1.159-1.157L131.021,84.048z"/>
</g>
<g>
	<path fill="#414042" d="M164.666,267.634l-3.672-3.677l3.672-3.673l3.672,3.673L164.666,267.634z M163.508,263.957l1.158,1.16   l1.158-1.16l-1.158-1.157L163.508,263.957z"/>
</g>
<g>
	<path fill="#414042" d="M449.499,58.309l-3.673-3.676l3.673-3.673l3.672,3.673L449.499,58.309z M448.341,54.633l1.158,1.16   l1.158-1.16l-1.158-1.157L448.341,54.633z"/>
</g>
<g>
	<path fill="#414042" d="M571.796,121.505l-2.094-2.097l2.094-2.096l2.093,2.096L571.796,121.505z M571.136,119.409l0.66,0.661   l0.66-0.661l-0.66-0.661L571.136,119.409z"/>
</g>
<g>
	<path fill="#414042" d="M230.404,202.515l-3.672-3.676l3.672-3.676l3.672,3.676L230.404,202.515z M229.247,198.839l1.157,1.157   l1.159-1.157l-1.159-1.157L229.247,198.839z"/>
</g>
<g>
	<path fill="#414042" d="M104.173,148.171c-1.681,0-3.047-1.366-3.047-3.045c0-1.684,1.366-3.051,3.047-3.051   c1.68,0,3.046,1.367,3.046,3.051C107.219,146.805,105.853,148.171,104.173,148.171z M104.173,143.281   c-1.014,0-1.844,0.827-1.844,1.845c0,1.017,0.83,1.843,1.844,1.843c1.018,0,1.845-0.826,1.845-1.843   C106.018,144.108,105.19,143.281,104.173,143.281z"/>
</g>
<g>
	<path fill="#414042" d="M164.666,181.046c-1.681,0-3.047-1.366-3.047-3.045c0-1.684,1.366-3.05,3.047-3.05   c1.68,0,3.046,1.366,3.046,3.05C167.712,179.68,166.346,181.046,164.666,181.046z M164.666,176.156   c-1.015,0-1.844,0.827-1.844,1.845s0.83,1.843,1.844,1.843c1.017,0,1.844-0.825,1.844-1.843S165.683,176.156,164.666,176.156z"/>
</g>
<g>
	<path fill="#414042" d="M249.964,66.418c-1.681,0-3.048-1.367-3.048-3.045c0-1.684,1.367-3.05,3.048-3.05   c1.68,0,3.046,1.366,3.046,3.05C253.01,65.051,251.644,66.418,249.964,66.418z M249.964,61.528c-1.015,0-1.845,0.827-1.845,1.845   c0,1.017,0.83,1.843,1.845,1.843c1.017,0,1.844-0.826,1.844-1.843C251.809,62.355,250.981,61.528,249.964,61.528z"/>
</g>
<g>
	<path fill="#414042" d="M427.09,147.045c-1.95,0-3.537-1.585-3.537-3.534c0-1.954,1.587-3.539,3.537-3.539s3.536,1.585,3.536,3.539   C430.626,145.46,429.04,147.045,427.09,147.045z M427.09,141.371c-1.178,0-2.141,0.958-2.141,2.14c0,1.181,0.963,2.139,2.141,2.139   c1.181,0,2.142-0.958,2.142-2.139C429.231,142.329,428.271,141.371,427.09,141.371z"/>
</g>
<g>
	<path fill="#414042" d="M200.568,82.554c-1.95,0-3.537-1.586-3.537-3.535c0-1.954,1.587-3.54,3.537-3.54s3.536,1.585,3.536,3.54   C204.104,80.968,202.519,82.554,200.568,82.554z M200.568,76.879c-1.178,0-2.141,0.958-2.141,2.14c0,1.18,0.963,2.139,2.141,2.139   c1.18,0,2.141-0.958,2.141-2.139C202.709,77.838,201.749,76.879,200.568,76.879z"/>
</g>
<g>
	<path fill="#414042" d="M553.256,141.352c-3.117,0-5.651-2.534-5.651-5.647c0-3.123,2.534-5.657,5.651-5.657   c3.116,0,5.65,2.534,5.65,5.657C558.906,138.818,556.372,141.352,553.256,141.352z M553.256,132.283   c-1.881,0-3.42,1.535-3.42,3.421s1.539,3.418,3.42,3.418c1.887,0,3.421-1.532,3.421-3.418S555.143,132.283,553.256,132.283z"/>
</g>
<g>
	<path fill="#414042" d="M425.31,213.824c-1.809,0-3.281-1.472-3.281-3.278c0-1.813,1.473-3.284,3.281-3.284   c1.81,0,3.28,1.472,3.28,3.284C428.59,212.353,427.119,213.824,425.31,213.824z M425.31,208.562c-1.093,0-1.985,0.89-1.985,1.984   s0.893,1.984,1.985,1.984c1.095,0,1.985-0.89,1.985-1.984S426.404,208.562,425.31,208.562z"/>
</g>
<g>
	<g>
		<path fill="#414042" d="M209.366,231.594H187.04c-1.925,0-3.49-1.565-3.49-3.489v-35.123c0-0.846-0.687-1.532-1.531-1.532h-36.146    c-0.541,0-0.979-0.438-0.979-0.979c0-0.541,0.438-0.979,0.979-0.979h36.146c1.923,0,3.488,1.565,3.488,3.49v35.123    c0,0.844,0.687,1.531,1.532,1.531h22.326c0.54,0,0.979,0.438,0.979,0.979C210.344,231.155,209.906,231.594,209.366,231.594z"/>
	</g>
	<g>
		<g>
			<polygon fill="#414042" points="203.527,237.821 202.325,236.529 208.689,230.616 202.325,224.7 203.527,223.41 211.276,230.616         "/>
		</g>
	</g>
</g>
<g>
	<g>
		<path fill="#414042" d="M502.565,177.336H480.24c-0.54,0-0.979-0.438-0.979-0.979c0-0.54,0.438-0.979,0.979-0.979h22.325    c0.844,0,1.532-0.688,1.532-1.532v-35.124c0-1.923,1.565-3.488,3.488-3.488h36.146c0.54,0,0.979,0.438,0.979,0.979    c0,0.541-0.438,0.979-0.979,0.979h-36.146c-0.845,0-1.53,0.687-1.53,1.531v35.124C506.056,175.771,504.49,177.336,502.565,177.336    z"/>
	</g>
	<g>
		<g>
			<polygon fill="#414042" points="486.078,169.15 487.279,170.44 480.916,176.354 487.279,182.271 486.078,183.561      478.328,176.354    "/>
		</g>
	</g>
</g>
<g>
	<g>
		<path fill="#414042" d="M192.449,128.191h-16.929c-0.541,0-0.979-0.438-0.979-0.979s0.438-0.979,0.979-0.979h16.929    c0.535,0,0.971-0.436,0.971-0.974V97.961c0-1.616,1.314-2.931,2.93-2.931h13.087c0.541,0,0.979,0.438,0.979,0.979    c0,0.541-0.438,0.979-0.979,0.979h-13.087c-0.537,0-0.972,0.437-0.972,0.974v27.299    C195.378,126.876,194.064,128.191,192.449,128.191z"/>
	</g>
	<g>
		<g>
			<polygon fill="#414042" points="181.359,120.006 182.561,121.296 176.197,127.21 182.561,133.127 181.359,134.417 173.61,127.21         "/>
		</g>
	</g>
</g>
<g>
	<g>
		<path fill="#414042" d="M454.797,234.51h16.929c0.541,0,0.979-0.438,0.979-0.979c0-0.54-0.438-0.979-0.979-0.979h-16.929    c-0.535,0-0.971-0.438-0.971-0.974v-27.301c0-1.616-1.315-2.93-2.931-2.93h-13.087c-0.541,0-0.979,0.438-0.979,0.979    c0,0.541,0.438,0.979,0.979,0.979h13.087c0.536,0,0.973,0.436,0.973,0.972v27.301C451.868,233.194,453.182,234.51,454.797,234.51z    "/>
	</g>
	<g>
		<g>
			<polygon fill="#414042" points="465.887,226.324 464.686,227.614 471.049,233.528 464.686,239.444 465.887,240.734      473.637,233.528    "/>
		</g>
	</g>
</g>
<g>
	<path fill="#414042" d="M469.716,113.779h2.191v-2.287h1.581v2.287h2.204v1.486h-2.204v2.313h-1.581v-2.313h-2.191V113.779z"/>
</g>
<g>
	<path fill="#414042" d="M480.257,200.591h2.191v-2.286h1.581v2.286h2.204v1.485h-2.204v2.313h-1.581v-2.313h-2.191V200.591z"/>
</g>
<g>
	<path fill="#414042" d="M72.215,141.559h1.629v-1.701h1.177v1.701h1.639v1.105h-1.639v1.721h-1.177v-1.721h-1.629V141.559z"/>
</g>
<g>
	<path fill="#414042" d="M214.285,117.452h2.455v-2.561h1.773v2.561h2.469v1.667h-2.469v2.592h-1.773v-2.592h-2.455V117.452z"/>
</g>
<g>
	<path fill="#414042" d="M149.892,125.622h2.455v-2.561h1.773v2.561h2.469v1.666h-2.469v2.592h-1.773v-2.592h-2.455V125.622z"/>
</g>
<g>
	<path fill="#414042" d="M199.226,252.349h1.703v-1.775h1.23v1.775h1.712v1.157h-1.712v1.799h-1.23v-1.799h-1.703V252.349z"/>
</g>
<g>
	<path fill="#414042" d="M274.728,243.055h1.424v-1.485h1.028v1.485h1.432v0.967h-1.432v1.504h-1.028v-1.504h-1.424V243.055z"/>
</g>
<g>
	<path fill="#414042" d="M395.882,81.899h1.541v-1.608h1.114v1.608h1.55v1.046h-1.55v1.628h-1.114v-1.628h-1.541V81.899z"/>
</g>
<g>
	<path fill="#414042" d="M546.262,80.962h1.541v-1.608h1.114v1.608h1.55v1.046h-1.55v1.628h-1.114v-1.628h-1.541V80.962z"/>
</g>
<g>
	<rect x="457.009" y="246.058" fill="#414042" width="1.664" height="1.664"/>
	<rect x="460.519" y="246.058" fill="#414042" width="1.665" height="1.664"/>
	<rect x="464.028" y="246.058" fill="#414042" width="1.665" height="1.664"/>
	<rect x="467.539" y="246.058" fill="#414042" width="1.664" height="1.664"/>
	<rect x="471.049" y="246.058" fill="#414042" width="1.665" height="1.664"/>
	<rect x="474.56" y="246.058" fill="#414042" width="1.664" height="1.664"/>
	<rect x="478.069" y="246.058" fill="#414042" width="1.665" height="1.664"/>
	<rect x="481.58" y="246.058" fill="#414042" width="1.664" height="1.664"/>
	<rect x="485.09" y="246.058" fill="#414042" width="1.665" height="1.664"/>
	<rect x="488.601" y="246.058" fill="#414042" width="1.664" height="1.664"/>
</g>
<g>
	<rect x="442.045" y="122.156" fill="#414042" width="1.664" height="1.665"/>
	<rect x="445.555" y="122.156" fill="#414042" width="1.665" height="1.665"/>
	<rect x="449.065" y="122.156" fill="#414042" width="1.664" height="1.665"/>
	<rect x="452.575" y="122.156" fill="#414042" width="1.665" height="1.665"/>
	<rect x="456.086" y="122.156" fill="#414042" width="1.664" height="1.665"/>
	<rect x="459.596" y="122.156" fill="#414042" width="1.665" height="1.665"/>
	<rect x="463.106" y="122.156" fill="#414042" width="1.664" height="1.665"/>
	<rect x="466.616" y="122.156" fill="#414042" width="1.665" height="1.665"/>
	<rect x="470.126" y="122.156" fill="#414042" width="1.665" height="1.665"/>
	<rect x="473.637" y="122.156" fill="#414042" width="1.664" height="1.665"/>
</g>
<g>
	<rect x="262.623" y="256.232" fill="#414042" width="1.665" height="1.664"/>
	<rect x="266.133" y="256.232" fill="#414042" width="1.665" height="1.664"/>
	<rect x="269.643" y="256.232" fill="#414042" width="1.665" height="1.664"/>
	<rect x="273.153" y="256.232" fill="#414042" width="1.665" height="1.664"/>
	<rect x="276.664" y="256.232" fill="#414042" width="1.665" height="1.664"/>
	<rect x="280.174" y="256.232" fill="#414042" width="1.665" height="1.664"/>
	<rect x="283.684" y="256.232" fill="#414042" width="1.665" height="1.664"/>
	<rect x="287.194" y="256.232" fill="#414042" width="1.665" height="1.664"/>
	<rect x="290.704" y="256.232" fill="#414042" width="1.665" height="1.664"/>
	<rect x="294.214" y="256.232" fill="#414042" width="1.665" height="1.664"/>
</g>
<g>
	<rect x="207.679" y="62.538" fill="#414042" width="1.665" height="1.665"/>
	<rect x="211.189" y="62.538" fill="#414042" width="1.665" height="1.665"/>
	<rect x="214.699" y="62.538" fill="#414042" width="1.665" height="1.665"/>
	<rect x="218.209" y="62.538" fill="#414042" width="1.665" height="1.665"/>
	<rect x="221.719" y="62.538" fill="#414042" width="1.665" height="1.665"/>
	<rect x="225.229" y="62.538" fill="#414042" width="1.665" height="1.665"/>
	<rect x="228.74" y="62.538" fill="#414042" width="1.665" height="1.665"/>
	<rect x="232.25" y="62.538" fill="#414042" width="1.665" height="1.665"/>
	<rect x="235.76" y="62.538" fill="#414042" width="1.665" height="1.665"/>
	<rect x="239.271" y="62.538" fill="#414042" width="1.665" height="1.665"/>
</g>
<g>
	<rect x="530.137" y="105.032" fill="#414042" width="1.664" height="1.665"/>
	<rect x="533.646" y="105.032" fill="#414042" width="1.664" height="1.665"/>
	<rect x="537.156" y="105.032" fill="#414042" width="1.665" height="1.665"/>
	<rect x="540.667" y="105.032" fill="#414042" width="1.664" height="1.665"/>
	<rect x="544.177" y="105.032" fill="#414042" width="1.665" height="1.665"/>
	<rect x="547.688" y="105.032" fill="#414042" width="1.664" height="1.665"/>
	<rect x="551.197" y="105.032" fill="#414042" width="1.665" height="1.665"/>
	<rect x="554.708" y="105.032" fill="#414042" width="1.664" height="1.665"/>
	<rect x="558.218" y="105.032" fill="#414042" width="1.665" height="1.665"/>
	<rect x="561.728" y="105.032" fill="#414042" width="1.665" height="1.665"/>
</g>
<g>
	<rect x="123.494" y="177.166" fill="#414042" width="1.665" height="1.665"/>
	<rect x="127.004" y="177.166" fill="#414042" width="1.665" height="1.665"/>
	<rect x="130.514" y="177.166" fill="#414042" width="1.665" height="1.665"/>
	<rect x="134.024" y="177.166" fill="#414042" width="1.665" height="1.665"/>
	<rect x="137.535" y="177.166" fill="#414042" width="1.665" height="1.665"/>
	<rect x="141.045" y="177.166" fill="#414042" width="1.665" height="1.665"/>
	<rect x="144.555" y="177.166" fill="#414042" width="1.665" height="1.665"/>
	<rect x="148.065" y="177.166" fill="#414042" width="1.665" height="1.665"/>
	<rect x="151.575" y="177.166" fill="#414042" width="1.665" height="1.665"/>
	<rect x="155.085" y="177.166" fill="#414042" width="1.665" height="1.665"/>
</g>
<g>
	<rect x="195.393" y="133.584" fill="#414042" width="1.665" height="1.665"/>
	<rect x="198.903" y="133.584" fill="#414042" width="1.665" height="1.665"/>
	<rect x="202.413" y="133.584" fill="#414042" width="1.665" height="1.665"/>
	<rect x="205.923" y="133.584" fill="#414042" width="1.665" height="1.665"/>
	<rect x="209.434" y="133.584" fill="#414042" width="1.665" height="1.665"/>
	<rect x="212.944" y="133.584" fill="#414042" width="1.665" height="1.665"/>
	<rect x="216.454" y="133.584" fill="#414042" width="1.665" height="1.665"/>
	<rect x="219.964" y="133.584" fill="#414042" width="1.665" height="1.665"/>
	<rect x="223.475" y="133.584" fill="#414042" width="1.665" height="1.665"/>
	<rect x="226.985" y="133.584" fill="#414042" width="1.665" height="1.665"/>
</g>
<g>
	<g>
		<path fill="#414042" d="M233.876,249.158c-0.541,0-0.979-0.438-0.979-0.979v-6.34c0-4.4,3.581-7.98,7.982-7.98    c0.541,0,0.979,0.438,0.979,0.979c0,0.54-0.438,0.979-0.979,0.979c-3.322,0-6.024,2.702-6.024,6.022v6.34    C234.854,248.72,234.416,249.158,233.876,249.158z"/>
	</g>
	<g>
		<path fill="#414042" d="M248.391,249.158c-0.541,0-0.979-0.438-0.979-0.979v-6.34c0-3.32-2.701-6.022-6.022-6.022    c-0.54,0-0.979-0.438-0.979-0.979c0-0.541,0.438-0.979,0.979-0.979c4.401,0,7.98,3.58,7.98,7.98v6.34    C249.37,248.72,248.931,249.158,248.391,249.158z"/>
	</g>
	<path fill="#00D4FF" d="M251.556,266.457c0,0.435-0.345,0.774-0.771,0.774h-18.794c-0.428,0-0.777-0.34-0.777-0.774v-18.789   c0-0.435,0.349-0.778,0.777-0.778h18.794c0.425,0,0.771,0.344,0.771,0.778V266.457z"/>
	<g>
		<path fill="#414042" d="M250.785,268.211h-18.794c-0.968,0-1.756-0.786-1.756-1.754v-18.789c0-0.969,0.788-1.757,1.756-1.757    h18.794c0.965,0,1.749,0.788,1.749,1.757v18.789C252.534,267.425,251.75,268.211,250.785,268.211z M232.193,266.253h18.383    v-18.385h-18.383V266.253z"/>
	</g>
	<g>
		<path fill="#414042" d="M241.386,261.263c-0.541,0-0.979-0.438-0.979-0.979v-6.44c0-0.54,0.438-0.979,0.979-0.979    s0.979,0.438,0.979,0.979v6.44C242.365,260.824,241.927,261.263,241.386,261.263z"/>
	</g>
</g>
<g>
	<path fill="#F1F2F2" d="M299.457,239.41c0,0,0.989-1.501,2.2-3.364c1.209-1.854,2.197-5.336,2.197-7.763v-14.627h39.782v14.627   c0,2.427,0.98,5.909,2.198,7.763l2.199,3.364H299.457z"/>
	<rect x="303.854" y="213.656" fill="#D1D3D4" width="39.782" height="11.057"/>
	<g>
		<path fill="#414042" d="M349.842,240.39h-52.201l0.999-1.518c0-0.001,0.987-1.5,2.196-3.359c1.105-1.695,2.039-5.005,2.039-7.229    v-15.605h41.74v15.605c0,2.235,0.934,5.545,2.038,7.225L349.842,240.39z M301.269,238.432h44.956l-1.21-1.851    c-1.321-2.011-2.357-5.655-2.357-8.298v-13.648h-37.825v13.648c0,2.627-1.035,6.271-2.357,8.298    C302.031,237.266,301.616,237.901,301.269,238.432z"/>
	</g>
	<path fill="#FFFFFF" d="M401.777,217.771H245.333c-2.419,0-4.389-1.969-4.389-4.399v-85.008c0-2.427,1.97-4.397,4.389-4.397   h156.444c2.428,0,4.396,1.97,4.396,4.397v85.008C406.173,215.803,404.205,217.771,401.777,217.771z"/>
	<g>
		<path fill="#414042" d="M401.777,218.751H245.333c-2.959,0-5.368-2.413-5.368-5.379v-85.008c0-2.965,2.408-5.375,5.368-5.375    h156.444c2.963,0,5.375,2.411,5.375,5.375v85.008C407.152,216.338,404.74,218.751,401.777,218.751z M245.333,124.946    c-1.88,0-3.41,1.534-3.41,3.418v85.008c0,1.886,1.53,3.421,3.41,3.421h156.444c1.884,0,3.417-1.535,3.417-3.421v-85.008    c0-1.884-1.533-3.418-3.417-3.418H245.333z"/>
	</g>
	<rect x="249.731" y="132.764" fill="#00D4FF" width="147.657" height="67.248"/>
	<g>
		<path fill="#414042" d="M398.366,200.99H248.752v-69.206h149.614V200.99z M250.71,199.033h145.698v-65.291H250.71V199.033z"/>
	</g>
</g>
<g>
	<g>
		<rect x="247.332" y="83.505" fill="#414042" width="20.491" height="1.958"/>
	</g>
	<g>
		<rect x="242.872" y="104.885" fill="#414042" width="20.491" height="1.958"/>
	</g>
	<circle fill="#00D4FF" cx="236.912" cy="93.893" r="17.386"/>
	<g>
		<path fill="#414042" d="M236.913,112.259c-10.127,0-18.366-8.239-18.366-18.366c0-10.126,8.239-18.365,18.366-18.365    c10.126,0,18.365,8.239,18.365,18.365C255.278,104.02,247.039,112.259,236.913,112.259z M236.913,77.486    c-9.047,0-16.408,7.36-16.408,16.407c0,9.047,7.36,16.408,16.408,16.408c9.047,0,16.408-7.36,16.408-16.408    C253.32,84.846,245.959,77.486,236.913,77.486z"/>
	</g>
	<g>
		<path fill="#FFFFFF" d="M226.643,95.735c0-0.203-0.075-0.368-0.224-0.495c-0.149-0.126-0.336-0.243-0.562-0.348    c-0.225-0.104-0.47-0.212-0.733-0.324c-0.264-0.111-0.508-0.248-0.733-0.409c-0.225-0.162-0.413-0.363-0.562-0.605    c-0.15-0.241-0.224-0.549-0.224-0.923c0-0.324,0.053-0.605,0.162-0.843c0.108-0.238,0.261-0.437,0.461-0.595    s0.437-0.276,0.709-0.353c0.273-0.076,0.578-0.114,0.915-0.114c0.387,0,0.752,0.033,1.095,0.1s0.625,0.164,0.848,0.291    l-0.409,1.095c-0.14-0.088-0.349-0.169-0.629-0.243c-0.279-0.073-0.581-0.11-0.904-0.11c-0.305,0-0.538,0.061-0.7,0.181    c-0.162,0.121-0.243,0.283-0.243,0.486c0,0.19,0.075,0.349,0.224,0.476c0.149,0.127,0.337,0.245,0.562,0.352    c0.226,0.108,0.47,0.219,0.734,0.333c0.263,0.115,0.508,0.252,0.733,0.414c0.226,0.162,0.413,0.362,0.562,0.601    c0.149,0.238,0.224,0.535,0.224,0.89s-0.059,0.662-0.176,0.919c-0.118,0.257-0.283,0.471-0.496,0.643s-0.47,0.299-0.771,0.381    c-0.301,0.083-0.633,0.124-0.995,0.124c-0.476,0-0.896-0.044-1.257-0.133c-0.362-0.089-0.629-0.178-0.801-0.267l0.419-1.115    c0.069,0.039,0.16,0.08,0.271,0.125c0.111,0.044,0.236,0.085,0.376,0.124s0.288,0.07,0.443,0.095    c0.156,0.025,0.315,0.038,0.48,0.038c0.388,0,0.685-0.065,0.891-0.195C226.54,96.2,226.643,96.001,226.643,95.735z"/>
		<path fill="#FFFFFF" d="M233.547,92.021h-1.942v5.504H230.3v-5.504h-1.953v-1.162h5.2V92.021z"/>
		<path fill="#FFFFFF" d="M233.643,94.192c0-1.111,0.244-1.966,0.733-2.566c0.489-0.6,1.187-0.9,2.095-0.9    c0.476,0,0.892,0.083,1.247,0.248c0.356,0.166,0.651,0.4,0.886,0.705c0.234,0.305,0.409,0.67,0.523,1.095    c0.114,0.425,0.171,0.898,0.171,1.419c0,1.111-0.247,1.966-0.738,2.566c-0.493,0.6-1.189,0.899-2.09,0.899    c-0.482,0-0.902-0.082-1.257-0.247s-0.649-0.4-0.881-0.705c-0.232-0.304-0.404-0.669-0.519-1.095    C233.699,95.186,233.643,94.713,233.643,94.192z M235.014,94.192c0,0.336,0.028,0.646,0.085,0.928    c0.058,0.282,0.144,0.525,0.262,0.729c0.117,0.203,0.268,0.362,0.453,0.476c0.183,0.115,0.402,0.171,0.657,0.171    c0.463,0,0.822-0.181,1.076-0.542c0.254-0.362,0.381-0.949,0.381-1.762c0-0.324-0.027-0.625-0.081-0.904    c-0.054-0.28-0.138-0.524-0.252-0.734c-0.114-0.209-0.264-0.373-0.447-0.49c-0.184-0.118-0.41-0.177-0.676-0.177    c-0.464,0-0.822,0.186-1.076,0.557C235.141,92.816,235.014,93.399,235.014,94.192z"/>
		<path fill="#FFFFFF" d="M240.232,90.926c0.146-0.026,0.303-0.049,0.471-0.072c0.168-0.022,0.336-0.039,0.505-0.052    c0.168-0.013,0.332-0.022,0.49-0.028s0.305-0.01,0.438-0.01c0.311,0,0.618,0.029,0.919,0.085c0.302,0.057,0.571,0.156,0.81,0.296    c0.238,0.139,0.428,0.331,0.571,0.576c0.143,0.244,0.214,0.551,0.214,0.919c0,0.545-0.127,0.99-0.381,1.333    c-0.254,0.342-0.594,0.581-1.019,0.714l0.466,0.295l1.524,2.543h-1.505l-1.514-2.609l-0.685-0.124v2.733h-1.305V90.926z     M242.231,91.926c-0.133,0-0.265,0.003-0.396,0.01c-0.13,0.006-0.23,0.019-0.299,0.038v1.933h0.552    c0.362,0,0.651-0.083,0.867-0.248c0.216-0.165,0.324-0.438,0.324-0.819c0-0.286-0.089-0.509-0.266-0.671    C242.835,92.007,242.574,91.926,242.231,91.926z"/>
		<path fill="#FFFFFF" d="M245.964,90.859h3.952v1.162h-2.647v1.552h2.409v1.162h-2.409v1.628h2.694v1.162h-3.999V90.859z"/>
	</g>
</g>
<g>
	<polygon opacity="0.2" fill="#231F20" points="389.541,133.743 257.577,133.743 263.362,199.645 383.754,199.645  "/>
	<rect x="263.362" y="58.151" fill="#FFFFFF" width="120.394" height="141.493"/>
	<rect x="263.362" y="58.151" fill="#E6E7E8" width="120.394" height="10.322"/>
	<g>
		<path fill="#414042" d="M384.734,200.624H262.384V57.173h122.351V200.624z M264.341,198.666h118.435V59.13H264.341V198.666z"/>
	</g>
	<circle fill="#FFFFFF" cx="273.138" cy="63.313" r="1.49"/>
	<circle fill="#FFFFFF" cx="280.199" cy="63.313" r="1.489"/>
	<circle fill="#FFFFFF" cx="287.26" cy="63.313" r="1.489"/>
	<rect x="274.352" y="116.773" fill="#E6E7E8" width="26.18" height="26.181"/>
	<rect x="274.352" y="149.921" fill="#D1D3D4" width="26.18" height="26.18"/>
	<polygon fill="#E6E7E8" points="272.686,93.96 259.955,93.96 263.362,69.028 275.402,69.028  "/>
	<polygon fill="#66E5FF" points="285.417,93.96 272.686,93.96 275.402,69.028 287.442,69.028  "/>
	<polygon fill="#E6E7E8" points="298.148,93.96 285.417,93.96 287.442,69.028 299.481,69.028  "/>
	<polygon fill="#66E5FF" points="310.879,93.96 298.148,93.96 299.481,69.028 311.521,69.028  "/>
	<polygon fill="#E6E7E8" points="323.612,93.96 310.879,93.96 311.521,69.028 323.561,69.028  "/>
	<polygon fill="#66E5FF" points="336.341,93.96 323.612,93.96 323.561,69.028 335.6,69.028  "/>
	<polygon fill="#E6E7E8" points="349.071,93.96 336.341,93.96 335.6,69.028 347.639,69.028  "/>
	<polygon fill="#66E5FF" points="361.803,93.96 349.071,93.96 347.639,69.028 359.678,69.028  "/>
	<polygon fill="#66E5FF" points="387.264,93.96 374.534,93.96 371.717,69.028 383.756,69.028  "/>
	<path fill="#F1F2F2" d="M272.395,93.506v7.543c0,2.659-2.815,4.815-6.288,4.815l0,0c-3.473,0-6.288-2.156-6.288-4.815v-7.543   H272.395z"/>
	<g>
		<path fill="#414042" d="M266.107,106.843c-4.007,0-7.267-2.599-7.267-5.794v-7.543h1.958v7.543c0,2.115,2.382,3.836,5.309,3.836    s5.309-1.721,5.309-3.836v-7.543h1.958v7.543C273.374,104.244,270.114,106.843,266.107,106.843z"/>
	</g>
	<path fill="#00D4FF" d="M284.965,93.506v7.543c0,2.659-2.815,4.815-6.288,4.815l0,0c-3.473,0-6.288-2.156-6.288-4.815v-7.543   H284.965z"/>
	<g>
		<path fill="#414042" d="M278.895,106.843c-4.007,0-7.266-2.599-7.266-5.794v-7.543h1.958v7.543c0,2.115,2.381,3.836,5.309,3.836    c2.928,0,5.309-1.721,5.309-3.836v-7.543h1.958v7.543C286.162,104.244,282.902,106.843,278.895,106.843z"/>
	</g>
	<path fill="#F1F2F2" d="M297.971,93.506v7.543c0,2.659-2.815,4.815-6.288,4.815l0,0c-3.473,0-6.288-2.156-6.288-4.815v-7.543   H297.971z"/>
	<g>
		<path fill="#414042" d="M291.633,106.843c-4.006,0-7.266-2.599-7.266-5.794v-7.543h1.958v7.543c0,2.115,2.382,3.836,5.309,3.836    c2.928,0,5.31-1.721,5.31-3.836v-7.543h1.958v7.543C298.9,104.244,295.641,106.843,291.633,106.843z"/>
	</g>
	<path fill="#00D4FF" d="M310.759,93.506v7.543c0,2.659-2.815,4.815-6.288,4.815l0,0c-3.473,0-6.288-2.156-6.288-4.815v-7.543   H310.759z"/>
	<g>
		<path fill="#414042" d="M304.396,106.843c-4.007,0-7.267-2.599-7.267-5.794v-7.543h1.958v7.543c0,2.115,2.381,3.836,5.309,3.836    c2.928,0,5.309-1.721,5.309-3.836v-7.543h1.958v7.543C311.664,104.244,308.404,106.843,304.396,106.843z"/>
	</g>
	<path fill="#F1F2F2" d="M323.547,93.506v7.543c0,2.659-2.815,4.815-6.288,4.815l0,0c-3.473,0-6.288-2.156-6.288-4.815v-7.543   H323.547z"/>
	<g>
		<path fill="#414042" d="M317.16,106.843c-4.007,0-7.267-2.599-7.267-5.794v-7.543h1.958v7.543c0,2.115,2.381,3.836,5.309,3.836    c2.928,0,5.31-1.721,5.31-3.836v-7.543h1.958v7.543C324.428,104.244,321.167,106.843,317.16,106.843z"/>
	</g>
	<path fill="#00D4FF" d="M336.335,93.506v7.543c0,2.659-2.815,4.815-6.288,4.815l0,0c-3.473,0-6.287-2.156-6.287-4.815v-7.543   H336.335z"/>
	<g>
		<path fill="#414042" d="M330.047,106.843c-4.006,0-7.266-2.599-7.266-5.794v-8.522h14.533v8.522    C337.313,104.244,334.055,106.843,330.047,106.843z M324.739,94.485v6.564c0,2.115,2.381,3.836,5.308,3.836    c2.928,0,5.31-1.721,5.31-3.836v-6.564H324.739z"/>
	</g>
	<path fill="#F1F2F2" d="M349.124,93.506v7.543c0,2.659-2.816,4.815-6.289,4.815l0,0c-3.472,0-6.287-2.156-6.287-4.815v-7.543   H349.124z"/>
	<g>
		<path fill="#414042" d="M342.687,106.843c-4.008,0-7.267-2.599-7.267-5.794v-7.543h1.958v7.543c0,2.115,2.381,3.836,5.309,3.836    s5.31-1.721,5.31-3.836v-7.543h1.958v7.543C349.954,104.244,346.693,106.843,342.687,106.843z"/>
	</g>
	<path fill="#00D4FF" d="M361.912,93.506v7.543c0,2.659-2.817,4.815-6.289,4.815l0,0c-3.472,0-6.286-2.156-6.286-4.815v-7.543   H361.912z"/>
	<g>
		<path fill="#414042" d="M355.623,106.843c-4.006,0-7.265-2.599-7.265-5.794v-8.522h14.532v8.522    C362.891,104.244,359.631,106.843,355.623,106.843z M350.315,94.485v6.564c0,2.115,2.381,3.836,5.308,3.836    c2.928,0,5.31-1.721,5.31-3.836v-6.564H350.315z"/>
	</g>
	<path fill="#F1F2F2" d="M374.698,93.506v7.543c0,2.659-2.816,4.815-6.288,4.815l0,0c-3.473,0-6.287-2.156-6.287-4.815v-7.543   H374.698z"/>
	<g>
		<path fill="#414042" d="M368.212,106.843c-4.006,0-7.265-2.599-7.265-5.794v-7.543h1.957v7.543c0,2.115,2.382,3.836,5.308,3.836    c2.928,0,5.311-1.721,5.311-3.836v-7.543h1.957v7.543C375.479,104.244,372.22,106.843,368.212,106.843z"/>
	</g>
	<path fill="#00D4FF" d="M387.486,93.506v7.543c0,2.659-2.816,4.815-6.289,4.815l0,0c-3.472,0-6.286-2.156-6.286-4.815v-7.543   H387.486z"/>
	<g>
		<path fill="#414042" d="M380.975,106.843c-4.006,0-7.266-2.599-7.266-5.794v-7.543h1.958v7.543c0,2.115,2.381,3.836,5.308,3.836    c2.928,0,5.31-1.721,5.31-3.836v-7.543h1.958v7.543C388.242,104.244,384.981,106.843,380.975,106.843z"/>
	</g>
	<polygon fill="#E6E7E8" points="374.534,93.96 361.803,93.96 359.678,69.028 371.717,69.028  "/>
	<g>
		<path fill="#414042" d="M273.564,94.939h-14.731l3.675-26.89h13.984L273.564,94.939z M261.077,92.981h10.731l2.503-22.975h-10.095    L261.077,92.981z"/>
	</g>
	<g>
		<path fill="#414042" d="M286.32,94.939h-14.725l2.929-26.89h13.979L286.32,94.939z M273.777,92.981h10.737l1.866-22.975h-10.1    L273.777,92.981z"/>
	</g>
	<g>
		<path fill="#414042" d="M299.076,94.939h-14.72l2.184-26.89h13.974L299.076,94.939z M286.479,92.981h10.741l1.229-22.975h-10.104    L286.479,92.981z"/>
	</g>
	<g>
		<path fill="#414042" d="M311.833,94.939h-14.718l1.438-26.89h13.972L311.833,94.939z M299.18,92.981h10.746l0.59-22.975h-10.107    L299.18,92.981z"/>
	</g>
	<g>
		<path fill="#414042" d="M324.593,94.939h-14.718l0.691-26.89h13.972L324.593,94.939z M311.884,92.981h10.748l-0.047-22.975    h-10.109L311.884,92.981z"/>
	</g>
	<g>
		<path fill="#414042" d="M337.35,94.939h-14.714l-0.055-26.89h13.969L337.35,94.939z M324.589,92.981h10.744l-0.684-22.975h-10.107    L324.589,92.981z"/>
	</g>
	<g>
		<path fill="#414042" d="M350.108,94.939h-14.717l-0.801-26.89h13.973L350.108,94.939z M337.291,92.981h10.744l-1.32-22.975    h-10.107L337.291,92.981z"/>
	</g>
	<g>
		<path fill="#414042" d="M362.868,94.939h-14.721l-1.545-26.89h13.974L362.868,94.939z M349.996,92.981h10.74l-1.957-22.975    h-10.104L349.996,92.981z"/>
	</g>
	<g>
		<path fill="#414042" d="M388.39,94.939H373.66l-3.039-26.89h13.986L388.39,94.939z M375.408,92.981h10.729l-3.232-22.975h-10.091    L375.408,92.981z"/>
	</g>
	<g>
		<path fill="#414042" d="M375.63,94.939h-14.727l-2.291-26.89h13.979L375.63,94.939z M362.701,92.981h10.736l-2.595-22.975h-10.1    L362.701,92.981z"/>
	</g>
	<g>
		<g>
			<rect x="309.135" y="119.409" fill="#6D6E71" width="35.951" height="2.61"/>
		</g>
		<g>
			<rect x="309.135" y="128.885" fill="#6D6E71" width="32.186" height="1.958"/>
		</g>
		<g>
			<rect x="309.135" y="149.922" fill="#6D6E71" width="35.951" height="2.61"/>
		</g>
		<g>
			<rect x="309.135" y="159.397" fill="#6D6E71" width="16.093" height="1.957"/>
		</g>
		<g>
			<rect x="327.186" y="159.397" fill="#6D6E71" width="18.408" height="1.957"/>
		</g>
		<g>
			<rect x="347.538" y="159.397" fill="#6D6E71" width="24.179" height="1.957"/>
		</g>
		<g>
			<rect x="309.135" y="133.743" fill="#6D6E71" width="19.005" height="1.958"/>
		</g>
		<g>
			<rect x="309.135" y="165.408" fill="#6D6E71" width="26.464" height="1.958"/>
		</g>
		<g>
			<rect x="309.135" y="170.87" fill="#6D6E71" width="22.024" height="1.957"/>
		</g>
		<g>
			<rect x="337.389" y="165.408" fill="#6D6E71" width="17.332" height="1.958"/>
		</g>
		<g>
			<rect x="332.116" y="133.743" fill="#6D6E71" width="25.313" height="1.958"/>
		</g>
		<g>
			<rect x="309.135" y="138.6" fill="#6D6E71" width="32.186" height="1.958"/>
		</g>
		<g>
			<rect x="343.278" y="128.885" fill="#6D6E71" width="8.521" height="1.958"/>
		</g>
		<g>
			<rect x="353.72" y="128.885" fill="#6D6E71" width="17.997" height="1.958"/>
		</g>
	</g>
	<rect x="275.511" y="182.989" fill="#E6E7E8" width="11.749" height="11.75"/>
	<rect x="292.309" y="182.989" fill="#E6E7E8" width="11.749" height="11.75"/>
	<rect x="309.106" y="182.989" fill="#E6E7E8" width="11.75" height="11.75"/>
	<rect x="325.903" y="182.989" fill="#E6E7E8" width="11.749" height="11.75"/>
	<rect x="342.701" y="182.989" fill="#E6E7E8" width="11.749" height="11.75"/>
	<rect x="359.499" y="182.989" fill="#E6E7E8" width="11.749" height="11.75"/>
</g>
<g>
	<rect x="182.417" y="145.123" fill="#38DDFF" width="33.196" height="27.345"/>
	<polygon fill="#00D4FF" points="215.614,171.999 182.417,171.999 181.483,179.506 216.548,179.506  "/>
	<g>
		<path fill="#414042" d="M217.657,180.485h-37.282l1.072-8.607l-0.007-27.733h35.153v27.854L217.657,180.485z M182.59,178.527    h32.851l-0.798-6.407l-0.007-26.018h-31.238v25.896L182.59,178.527z"/>
	</g>
	<circle fill="#009FBF" cx="190.375" cy="149.065" r="1.638"/>
	<circle fill="#009FBF" cx="207.657" cy="149.065" r="1.638"/>
	<g>
		<path fill="#414042" d="M199.016,163.904c-5.305,0-9.621-4.315-9.621-9.621v-5.218h1.958v5.218c0,4.226,3.438,7.663,7.663,7.663    c4.225,0,7.662-3.438,7.662-7.663v-5.218h1.958v5.218C208.636,159.589,204.32,163.904,199.016,163.904z"/>
	</g>
</g>
<g>
	<circle fill="#F1F2F2" cx="427.549" cy="81.495" r="11.945"/>
	<g>
		<path fill="#414042" d="M427.549,94.418c-7.126,0-12.923-5.798-12.923-12.923c0-7.126,5.797-12.923,12.923-12.923    s12.925,5.797,12.925,12.923C440.474,88.62,434.675,94.418,427.549,94.418z M427.549,70.529c-6.047,0-10.965,4.919-10.965,10.966    s4.918,10.965,10.965,10.965s10.967-4.919,10.967-10.965S433.596,70.529,427.549,70.529z"/>
	</g>
	<g>
		<path fill="#00D4FF" d="M421.554,78.393c0-0.485,0.068-0.9,0.21-1.244c0.141-0.344,0.333-0.63,0.58-0.856    c0.247-0.226,0.548-0.39,0.898-0.493c0.35-0.102,0.729-0.153,1.137-0.153c0.409,0,0.788,0.048,1.131,0.145    c0.346,0.097,0.644,0.254,0.897,0.469c0.255,0.215,0.449,0.498,0.589,0.849c0.14,0.349,0.218,0.778,0.227,1.284    c-0.009,0.505-0.087,0.934-0.227,1.284c-0.14,0.35-0.334,0.632-0.589,0.848c-0.254,0.215-0.552,0.372-0.897,0.469    c-0.343,0.097-0.722,0.145-1.131,0.145c-0.407,0-0.787-0.048-1.137-0.145c-0.351-0.098-0.651-0.254-0.898-0.469    c-0.247-0.216-0.439-0.499-0.58-0.848C421.622,79.327,421.554,78.898,421.554,78.393z M431.666,75.615l1.18,1.065l-9.307,10.695    l-1.179-1.115L431.666,75.615z M423.429,78.393c0,0.926,0.315,1.389,0.95,1.389c0.334,0,0.575-0.099,0.719-0.299    c0.146-0.199,0.224-0.563,0.234-1.09c-0.011-0.517-0.088-0.878-0.234-1.082c-0.144-0.205-0.385-0.308-0.719-0.308    s-0.573,0.103-0.724,0.308C423.504,77.515,423.429,77.876,423.429,78.393z M428.112,84.386c0-0.484,0.07-0.898,0.209-1.244    c0.139-0.344,0.334-0.63,0.583-0.856c0.245-0.226,0.547-0.39,0.896-0.492c0.35-0.103,0.73-0.154,1.14-0.154    s0.785,0.049,1.129,0.145c0.347,0.098,0.646,0.254,0.897,0.47c0.253,0.215,0.449,0.498,0.589,0.848    c0.141,0.349,0.217,0.778,0.229,1.284c-0.012,0.506-0.088,0.934-0.229,1.285c-0.14,0.35-0.336,0.633-0.589,0.848    c-0.252,0.216-0.551,0.372-0.897,0.468c-0.344,0.098-0.72,0.146-1.129,0.146s-0.79-0.049-1.14-0.146    c-0.349-0.096-0.65-0.252-0.896-0.468c-0.249-0.215-0.444-0.498-0.583-0.848C428.183,85.32,428.112,84.892,428.112,84.386z     M429.984,84.386c0,0.926,0.319,1.39,0.955,1.39c0.333,0,0.573-0.099,0.716-0.299c0.148-0.199,0.225-0.562,0.236-1.09    c-0.012-0.517-0.088-0.878-0.236-1.083c-0.143-0.204-0.383-0.307-0.716-0.307c-0.335,0-0.576,0.104-0.728,0.307    C430.062,83.508,429.984,83.869,429.984,84.386z"/>
	</g>
	<g>
		<rect x="426.57" y="60.813" fill="#414042" width="1.958" height="6.62"/>
	</g>
	<g>
		
			<rect x="432.501" y="61.857" transform="matrix(0.9401 0.3409 -0.3409 0.9401 48.177 -143.8624)" fill="#414042" width="1.958" height="6.62"/>
	</g>
	<g>
		
			<rect x="437.719" y="64.862" transform="matrix(0.767 0.6416 -0.6416 0.767 145.9413 -265.5896)" fill="#414042" width="1.958" height="6.62"/>
	</g>
	<g>
		
			<rect x="441.598" y="69.47" transform="matrix(0.5013 0.8652 -0.8652 0.5013 283.6673 -346.6472)" fill="#414042" width="1.958" height="6.62"/>
	</g>
	<g>
		
			<rect x="443.671" y="75.124" transform="matrix(0.1761 0.9844 -0.9844 0.1761 443.566 -373.0789)" fill="#414042" width="1.958" height="6.62"/>
	</g>
	<g>
		
			<rect x="441.357" y="83.478" transform="matrix(0.9853 0.1706 -0.1706 0.9853 20.9254 -74.6182)" fill="#414042" width="6.62" height="1.957"/>
	</g>
	<g>
		
			<rect x="439.316" y="89.144" transform="matrix(0.868 0.4966 -0.4966 0.868 103.1903 -207.9101)" fill="#414042" width="6.621" height="1.957"/>
	</g>
	<g>
		
			<rect x="435.465" y="93.772" transform="matrix(0.6463 0.7631 -0.7631 0.6463 227.5121 -301.3158)" fill="#414042" width="6.62" height="1.958"/>
	</g>
	<g>
		
			<rect x="430.264" y="96.809" transform="matrix(0.347 0.9379 -0.9379 0.347 374.8474 -342.7804)" fill="#414042" width="6.62" height="1.957"/>
	</g>
	<g>
		
			<rect x="424.339" y="97.886" transform="matrix(0.0058 1 -1 0.0058 524.0516 -329.3449)" fill="#414042" width="6.62" height="1.958"/>
	</g>
	<g>
		
			<rect x="420.734" y="94.545" transform="matrix(0.9418 0.3361 -0.3361 0.9418 57.4332 -136.0629)" fill="#414042" width="1.957" height="6.62"/>
	</g>
	<g>
		
			<rect x="415.498" y="91.569" transform="matrix(0.7707 0.6371 -0.6371 0.7707 155.9292 -243.6026)" fill="#414042" width="1.959" height="6.62"/>
	</g>
	<g>
		
			<rect x="411.593" y="86.985" transform="matrix(0.5068 0.862 -0.862 0.5068 281.2989 -311.1234)" fill="#414042" width="1.958" height="6.619"/>
	</g>
	<g>
		
			<rect x="409.489" y="81.342" transform="matrix(0.1826 0.9832 -0.9832 0.1826 418.7569 -334.3722)" fill="#414042" width="1.958" height="6.62"/>
	</g>
	<g>
		
			<rect x="407.107" y="77.651" transform="matrix(0.9863 0.1647 -0.1647 0.9863 18.5601 -66.5352)" fill="#414042" width="6.619" height="1.958"/>
	</g>
	<g>
		
			<rect x="409.114" y="71.973" transform="matrix(0.8708 0.4916 -0.4916 0.8708 89.1478 -193.3332)" fill="#414042" width="6.618" height="1.959"/>
	</g>
	<g>
		
			<rect x="412.94" y="67.322" transform="matrix(0.6506 0.7594 -0.7594 0.6506 197.3079 -292.2442)" fill="#414042" width="6.618" height="1.957"/>
	</g>
	<g>
		
			<rect x="418.123" y="64.256" transform="matrix(0.3523 0.9359 -0.9359 0.3523 334.0235 -352.1613)" fill="#414042" width="6.617" height="1.958"/>
	</g>
</g>
<g>
	<path fill="#FFFFFF" d="M467.935,186.384c0,0.617-0.481,1.118-1.075,1.118h-36.366c-0.593,0-1.074-0.501-1.074-1.118l-1.678-22.204   c0-0.617,0.482-1.118,1.077-1.118h39.718c0.594,0,1.074,0.501,1.074,1.118L467.935,186.384z"/>
	<path fill="#E6E7E8" d="M468.659,164.18h-39.966c-0.599,0-1.083,0.499-1.083,1.117l0.651,4.463h40.828l0.653-4.463   C469.743,164.679,469.257,164.18,468.659,164.18z"/>
	<g>
		<path fill="#414042" d="M466.859,188.48h-36.366c-1.132,0-2.054-0.94-2.054-2.097l-1.674-22.131    c-0.003-1.229,0.92-2.17,2.053-2.17h39.718c1.132,0,2.053,0.94,2.053,2.097l-1.679,22.278    C468.913,187.54,467.991,188.48,466.859,188.48z M428.818,164.04c-0.046,0-0.098,0.058-0.098,0.14l1.675,22.13    c0.002,0.161,0.059,0.213,0.098,0.213h36.366c0.045,0,0.096-0.06,0.096-0.139l1.679-22.278c-0.003-0.005-0.054-0.065-0.098-0.065    H428.818z"/>
	</g>
	<g>
		<rect x="431.903" y="170.87" fill="#414042" width="33.545" height="1.957"/>
	</g>
	<g>
		<rect x="432.957" y="174.65" fill="#414042" width="31.438" height="1.957"/>
	</g>
	<g>
		<rect x="434.386" y="178.432" fill="#414042" width="28.583" height="1.958"/>
	</g>
	<g>
		<rect x="435.612" y="182.212" fill="#414042" width="26.129" height="1.958"/>
	</g>
	<path fill="#00D4FF" d="M471.754,165.783c0,0.453-0.501,0.819-1.118,0.819h-43.918c-0.616,0-1.117-0.366-1.117-0.819v-2.894   c0-0.452,0.501-0.819,1.117-0.819h43.918c0.617,0,1.118,0.367,1.118,0.819V165.783z"/>
	<g>
		<path fill="#414042" d="M470.636,167.581h-43.918c-1.175,0-2.097-0.79-2.097-1.798v-2.894c0-1.008,0.922-1.799,2.097-1.799h43.918    c1.176,0,2.097,0.791,2.097,1.799v2.894C472.732,166.791,471.812,167.581,470.636,167.581z M426.579,165.605    c0.035,0.011,0.081,0.019,0.139,0.019h43.918c0.058,0,0.104-0.008,0.14-0.019v-2.537c-0.036-0.011-0.082-0.02-0.14-0.02h-43.918    c-0.058,0-0.104,0.009-0.139,0.02V165.605z"/>
	</g>
	<path fill="#F1F2F2" d="M461.121,162.021c0.279,0.55,0.058,1.223-0.494,1.499l-1.471,0.743c-0.552,0.275-1.224,0.055-1.502-0.497   l-8.31-16.501c-0.278-0.552-0.057-1.223,0.494-1.501l1.472-0.741c0.55-0.277,1.223-0.056,1.501,0.495L461.121,162.021z"/>
	<g>
		<path fill="#414042" d="M458.655,165.361c-0.798,0-1.517-0.442-1.875-1.155l-8.311-16.501c-0.519-1.029-0.103-2.293,0.927-2.813    l1.475-0.742c0.999-0.505,2.309-0.072,2.814,0.928l8.311,16.505c0.252,0.496,0.296,1.064,0.119,1.597    c-0.176,0.533-0.548,0.965-1.05,1.218l-1.469,0.74C459.303,165.284,458.979,165.361,458.655,165.361z M451.812,145.883    l-1.533,0.756c-0.067,0.034-0.096,0.117-0.06,0.188l8.311,16.501c0.04,0.084,0.128,0.089,0.189,0.061l1.467-0.74l-0.001-0.003    l0.063-0.184l-8.311-16.503C451.909,145.903,451.854,145.883,451.812,145.883z"/>
	</g>
	<path fill="#F1F2F2" d="M435.934,162.021c-0.281,0.55-0.059,1.223,0.493,1.499l1.472,0.743c0.55,0.275,1.224,0.055,1.5-0.497   l8.312-16.501c0.278-0.552,0.057-1.223-0.495-1.501l-1.471-0.741c-0.553-0.277-1.224-0.056-1.502,0.495L435.934,162.021z"/>
	<g>
		<path fill="#414042" d="M438.398,165.361c-0.324,0-0.649-0.077-0.938-0.222l-1.475-0.745c-0.5-0.251-0.873-0.683-1.048-1.217    c-0.176-0.533-0.131-1.102,0.124-1.601l8.307-16.499c0.506-1.003,1.813-1.434,2.815-0.929l1.471,0.74    c1.032,0.522,1.449,1.786,0.931,2.815l-8.312,16.501C439.916,164.917,439.197,165.361,438.398,165.361z M445.243,145.893    c-0.066,0-0.104,0.022-0.127,0.066l-8.309,16.502l0.001,0.002l0.059,0.184l1.531,0.757c0.015,0,0.089-0.004,0.125-0.075    l8.313-16.502c0.036-0.07,0.008-0.153-0.063-0.188l-1.469-0.739C445.281,145.895,445.261,145.893,445.243,145.893z"/>
	</g>
</g>
<g>
	<g>
		<path fill="#414042" d="M173.072,92.579c-0.541,0-0.979-0.438-0.979-0.979l-0.001-4.875c0-0.541,0.438-0.979,0.979-0.979    c0.541,0,0.979,0.438,0.979,0.979l0.001,4.875C174.051,92.14,173.613,92.579,173.072,92.579z"/>
	</g>
	<rect x="170.504" y="91.597" fill="#00D4FF" width="5.132" height="7.862"/>
	<rect x="173.246" y="91.597" fill="#66E5FF" width="2.391" height="7.862"/>
	<g>
		<path fill="#414042" d="M169.525,100.439v-9.821l7.091,0.003l-0.001,9.814L169.525,100.439z M171.483,92.577v5.903l3.174,0    l0.001-5.901L171.483,92.577z"/>
	</g>
	<g>
		<g>
			<path fill="#414042" d="M186.434,78.021c-0.225,0-0.451-0.077-0.636-0.235c-0.411-0.352-0.459-0.969-0.108-1.38     c2.41-2.819,3.737-6.417,3.737-10.131c0-8.6-6.997-15.597-15.598-15.597s-15.598,6.997-15.598,15.597     c0,2.596,0.65,5.167,1.882,7.434c0.258,0.475,0.082,1.069-0.394,1.327c-0.474,0.256-1.068,0.083-1.327-0.393     c-1.386-2.553-2.119-5.447-2.119-8.368c0-9.68,7.875-17.555,17.556-17.555c9.68,0,17.556,7.875,17.556,17.555     c0,4.179-1.494,8.229-4.207,11.403C186.985,77.904,186.71,78.021,186.434,78.021z"/>
		</g>
		<g>
			<path fill="#414042" d="M183.563,65.085c-0.506,0-0.935-0.39-0.974-0.903c-0.379-4.877-1.788-9.705-3.77-12.915     c-0.284-0.46-0.141-1.063,0.319-1.347c0.461-0.284,1.063-0.142,1.347,0.318c2.17,3.515,3.648,8.542,4.055,13.792     c0.042,0.54-0.361,1.01-0.9,1.052C183.615,65.084,183.589,65.085,183.563,65.085z"/>
		</g>
		<g>
			<path fill="#414042" d="M164.667,63.691c-0.042,0-0.084-0.002-0.127-0.008c-0.536-0.069-0.914-0.56-0.845-1.096     c0.618-4.776,2.077-9.392,3.901-12.348c0.284-0.46,0.886-0.603,1.347-0.318c0.46,0.283,0.603,0.887,0.319,1.347     c-1.66,2.69-3.05,7.124-3.626,11.57C165.572,63.332,165.151,63.691,164.667,63.691z"/>
		</g>
		<g>
			<path fill="#414042" d="M173.83,60.549c-0.541,0-0.979-0.438-0.979-0.979v-9.872c0-0.54,0.438-0.979,0.979-0.979     s0.979,0.438,0.979,0.979v9.872C174.809,60.11,174.37,60.549,173.83,60.549z"/>
		</g>
		<g>
			<path fill="#414042" d="M190.407,67.253h-4.947c-0.541,0-0.979-0.438-0.979-0.979s0.438-0.979,0.979-0.979h4.947     c0.541,0,0.979,0.438,0.979,0.979S190.947,67.253,190.407,67.253z"/>
		</g>
		<g>
			<path fill="#414042" d="M161.753,67.253h-4.501c-0.541,0-0.979-0.438-0.979-0.979s0.438-0.979,0.979-0.979h4.501     c0.541,0,0.979,0.438,0.979,0.979S162.294,67.253,161.753,67.253z"/>
		</g>
		<g>
			<path fill="#414042" d="M188.432,59.375h-28.63c-0.541,0-0.979-0.438-0.979-0.979s0.438-0.979,0.979-0.979h28.63     c0.541,0,0.979,0.438,0.979,0.979S188.972,59.375,188.432,59.375z"/>
		</g>
	</g>
	<path fill="#00D4FF" d="M173.07,59.686c-7.467,0-13.52,6.056-13.52,13.521c0,7.467,6.053,13.521,13.52,13.519   c7.466,0.002,13.521-6.051,13.521-13.519C186.592,65.741,180.538,59.684,173.07,59.686z M173.074,83.698h-0.006   c-5.784,0-10.49-4.706-10.49-10.492c0-5.787,4.708-10.494,10.493-10.494c2.805,0,5.439,1.092,7.421,3.074   c1.981,1.982,3.073,4.618,3.073,7.42C183.565,78.992,178.859,83.698,173.074,83.698z"/>
	<g>
		<path fill="#414042" d="M173.074,84.677h-0.006c-6.324,0-11.469-5.146-11.469-11.471c0-6.326,5.146-11.472,11.472-11.472    c3.063,0,5.945,1.193,8.114,3.36c2.167,2.167,3.36,5.048,3.36,8.112C184.544,79.531,179.399,84.677,173.074,84.677z     M173.07,63.691c-5.246,0-9.514,4.269-9.514,9.515c0,5.246,4.267,9.513,9.511,9.513h0.006c5.245,0,9.512-4.268,9.512-9.513    c0-2.541-0.99-4.931-2.786-6.728C178.001,64.681,175.611,63.691,173.07,63.691z"/>
	</g>
	<g>
		<path fill="#414042" d="M173.075,87.703h-0.005c-7.996,0-14.498-6.503-14.498-14.497c0-7.995,6.504-14.5,14.499-14.5    c3.874,0,7.515,1.508,10.254,4.248c2.738,2.739,4.246,6.38,4.246,10.252C187.571,81.2,181.068,87.703,173.075,87.703z     M173.073,60.665c-6.917,0-12.544,5.626-12.544,12.542c0,6.914,5.624,12.54,12.537,12.54l0.009,0.979v-0.979    c6.913,0,12.538-5.625,12.538-12.54C185.613,66.291,179.988,60.665,173.073,60.665z"/>
	</g>
	<g>
		<path fill="#414042" d="M179.871,71.963c-0.412,0-0.796-0.262-0.931-0.675c-0.587-1.799-2-3.255-3.781-3.895    c-0.509-0.183-0.773-0.744-0.591-1.252c0.184-0.509,0.742-0.773,1.252-0.591c2.347,0.843,4.209,2.761,4.981,5.131    c0.167,0.514-0.113,1.066-0.627,1.234C180.074,71.948,179.971,71.963,179.871,71.963z"/>
	</g>
</g>
<g>
	<path fill="#FFFFFF" d="M514.769,114.064c0,0-0.337-0.316-0.749-0.713c-0.421-0.396-1.369-2.381-1.576-3.245   c-0.354-1.44-2.074-5.032-2.074-5.032c-1.227,0.614-2.414,1.303-1.779,3.12c0.431,1.226,1.029,2.371,1.154,3.217   c0.069,0.466-0.097,1.578-0.212,1.871c-0.13,0.339-4.311,0.803-4.311,0.803h-4.799c-0.848,0-1.535,0.686-1.535,1.537   c0,0.847,0.688,1.535,1.535,1.535h2.977l0.01,0.334h-2.62c-0.848,0-1.536,0.688-1.536,1.537c0,0.849,0.688,1.535,1.536,1.535h2.728   l0.013,0.336h-2.74c-0.848,0-1.536,0.688-1.536,1.537c0,0.849,0.688,1.537,1.536,1.537h2.848l0.018,0.482h-2.047   c-0.768,0-1.388,0.622-1.388,1.389c0,0.765,0.62,1.387,1.388,1.387h4.073c3.674,0.451,7.429-0.66,7.429-0.66   c0.752-0.109,1.596-0.986,2.021-1.175c0.377-0.158,0.785-0.229,1.8-0.242l0.038-10.092   C516.969,115.061,516.152,114.867,514.769,114.064z"/>
	<g>
		<path fill="#414042" d="M507.529,128.318L507.529,128.318c-0.685,0-1.347-0.04-1.969-0.116l-3.953,0.008    c-1.306,0-2.367-1.062-2.367-2.366c0-0.441,0.121-0.853,0.331-1.207c-0.773-0.43-1.297-1.255-1.297-2.201    c0-0.657,0.254-1.256,0.666-1.705c-0.412-0.449-0.666-1.047-0.666-1.704c0-0.564,0.188-1.087,0.502-1.507    c-0.531-0.461-0.868-1.141-0.868-1.898c0-1.387,1.128-2.516,2.515-2.516h4.799c1.228-0.141,2.776-0.369,3.473-0.532    c0.059-0.355,0.108-0.841,0.081-1.021c-0.061-0.418-0.314-1.036-0.584-1.689c-0.177-0.43-0.363-0.882-0.526-1.346    c-0.945-2.711,1.223-3.798,2.266-4.32l0.891-0.447l0.431,0.898c0.18,0.377,1.774,3.727,2.143,5.222    c0.185,0.777,1.04,2.49,1.304,2.774l0.66,0.628c1.152,0.657,1.837,0.835,1.844,0.836l0.741,0.188l0.004,0.767l-0.042,11.054    l-0.962,0.013c-0.989,0.013-1.235,0.083-1.435,0.166c-0.081,0.043-0.213,0.151-0.368,0.268c-0.497,0.374-1.11,0.833-1.814,0.961    C512.896,127.648,510.4,128.318,507.529,128.318z M501.607,125.434c-0.226,0-0.409,0.184-0.409,0.41    c0,0.225,0.184,0.408,0.409,0.408h4.073c0.662,0.074,1.244,0.108,1.849,0.108c2.797,0,5.277-0.721,5.303-0.729l0.136-0.029    c0.243-0.036,0.716-0.39,0.998-0.602c0.277-0.208,0.518-0.388,0.769-0.499c0.359-0.151,0.716-0.238,1.221-0.284l0.032-8.458    c-0.418-0.168-0.997-0.434-1.709-0.847l-0.181-0.133l-0.758-0.723c-0.621-0.583-1.624-2.782-1.849-3.722    c-0.205-0.835-0.992-2.644-1.561-3.886c-0.593,0.414-0.647,0.763-0.417,1.424c0.15,0.429,0.323,0.849,0.488,1.249    c0.315,0.767,0.614,1.491,0.711,2.147c0.096,0.651-0.1,1.939-0.269,2.371c-0.204,0.533-0.341,0.889-5.114,1.419l-4.907,0.006    c-0.307,0-0.557,0.25-0.557,0.558c0,0.307,0.25,0.556,0.557,0.556h3.926l0.07,2.292h-3.63c-0.308,0-0.557,0.25-0.557,0.558    c0,0.307,0.249,0.556,0.557,0.556h3.67l0.088,2.294h-3.758c-0.308,0-0.557,0.25-0.557,0.558c0,0.308,0.249,0.559,0.557,0.559    h3.791l0.09,2.439H501.607z"/>
	</g>
	<rect x="515.799" y="113.58" fill="#00D4FF" width="8.154" height="12.891"/>
	<rect x="515.799" y="113.58" fill="#33DDFF" width="8.154" height="3.574"/>
	<g>
		<path fill="#414042" d="M524.932,127.45h-10.112v-14.849h10.112V127.45z M516.777,125.492h6.197v-10.934h-6.197V125.492z"/>
	</g>
	<path fill="#00D4FF" d="M504.911,93.826c0-6.293-5.101-11.395-11.395-11.395s-11.396,5.102-11.396,11.395   c0,6.294,5.103,11.395,11.396,11.395c2.689,0,5.158-0.938,7.106-2.496l4.288,6.852V93.826z"/>
	<g>
		<path fill="#414042" d="M504.668,109.857h-0.002c-0.486,0-0.916-0.292-1.275-0.867l-3.039-4.854    c-2.029,1.354-4.37,2.064-6.835,2.064c-6.824,0-12.375-5.551-12.375-12.374c0-6.823,5.551-12.374,12.375-12.374    c6.822,0,12.373,5.551,12.373,12.374v14.446c0,0.33-0.046,0.602-0.142,0.83C505.554,109.567,505.139,109.857,504.668,109.857z     M500.87,101.275l3.056,4.881l0.006-12.33c0-5.743-4.672-10.416-10.415-10.416c-5.745,0-10.418,4.672-10.418,10.416    c0,5.744,4.673,10.416,10.418,10.416c2.382,0,4.628-0.789,6.496-2.281L500.87,101.275z"/>
	</g>
	<g>
		<path fill="#414042" d="M498.33,90.966h-9.629c-0.541,0-0.979-0.438-0.979-0.979s0.438-0.979,0.979-0.979h9.629    c0.541,0,0.979,0.438,0.979,0.979S498.871,90.966,498.33,90.966z"/>
	</g>
	<g>
		<path fill="#414042" d="M498.33,95.292h-9.629c-0.541,0-0.979-0.438-0.979-0.979c0-0.541,0.438-0.979,0.979-0.979h9.629    c0.541,0,0.979,0.438,0.979,0.979C499.31,94.854,498.871,95.292,498.33,95.292z"/>
	</g>
	<g>
		<path fill="#414042" d="M498.33,99.618h-9.629c-0.541,0-0.979-0.438-0.979-0.979s0.438-0.979,0.979-0.979h9.629    c0.541,0,0.979,0.438,0.979,0.979S498.871,99.618,498.33,99.618z"/>
	</g>
	<path fill="#F1F2F2" d="M504.911,90.614c0-4.52,3.66-8.183,8.18-8.183c4.521,0,8.184,3.663,8.184,8.183   c0,4.517-3.663,8.181-8.184,8.181c-1.932,0-3.703-0.673-5.103-1.792l-3.077,4.92V90.614z"/>
	<g>
		<path fill="#414042" d="M505.086,102.4c-0.429,0-1.154-0.298-1.154-1.413V90.614c0-5.052,4.109-9.162,9.159-9.162    c5.052,0,9.162,4.11,9.162,9.162c0,5.051-4.11,9.159-9.162,9.159c-1.729,0-3.377-0.472-4.822-1.374l-2.033,3.25    C505.849,102.269,505.397,102.4,505.086,102.4z M513.091,83.411c-3.97,0-7.201,3.231-7.201,7.204v7.895l1.851-2.957l0.859,0.686    c1.29,1.033,2.844,1.578,4.491,1.578c3.974,0,7.204-3.23,7.204-7.202C520.295,86.642,517.064,83.411,513.091,83.411z"/>
	</g>
	<g>
		<path fill="#414042" d="M516.551,88.836h-6.916c-0.541,0-0.979-0.438-0.979-0.979s0.438-0.979,0.979-0.979h6.916    c0.54,0,0.979,0.438,0.979,0.979S517.091,88.836,516.551,88.836z"/>
	</g>
	<g>
		<path fill="#414042" d="M516.551,91.942h-6.916c-0.541,0-0.979-0.438-0.979-0.979c0-0.541,0.438-0.979,0.979-0.979h6.916    c0.54,0,0.979,0.438,0.979,0.979C517.529,91.504,517.091,91.942,516.551,91.942z"/>
	</g>
	<g>
		<path fill="#414042" d="M516.551,95.047h-6.916c-0.541,0-0.979-0.438-0.979-0.979c0-0.54,0.438-0.979,0.979-0.979h6.916    c0.54,0,0.979,0.438,0.979,0.979C517.529,94.609,517.091,95.047,516.551,95.047z"/>
	</g>
</g>
<g>
	<rect x="89.206" y="85.746" fill="#FFFFFF" width="24.315" height="40.726"/>
	<g>
		<path fill="#414042" d="M111.402,128.015H91.233c-1.734,0-3.146-1.41-3.146-3.143V87.773c0-1.733,1.411-3.143,3.146-3.143h20.169    c1.735,0,3.146,1.41,3.146,3.143v37.098C114.548,126.605,113.137,128.015,111.402,128.015z M91.233,86.588    c-0.655,0-1.188,0.532-1.188,1.186v37.098c0,0.654,0.533,1.185,1.188,1.185h20.169c0.655,0,1.188-0.531,1.188-1.185V87.773    c0-0.654-0.533-1.186-1.188-1.186H91.233z"/>
	</g>
	<rect x="92.439" y="90.358" fill="#00D4FF" width="17.757" height="31.52"/>
	<g>
		<path fill="#414042" d="M111.176,122.857H91.46V89.379h19.715V122.857z M93.418,120.9h15.8V91.337h-15.8V120.9z"/>
	</g>
	<g>
		<path fill="#414042" d="M103.896,88.997h-5.158c-0.541,0-0.979-0.438-0.979-0.979s0.438-0.979,0.979-0.979h5.158    c0.541,0,0.979,0.438,0.979,0.979S104.437,88.997,103.896,88.997z"/>
	</g>
	<rect x="104.172" y="99.823" fill="#FFFFFF" width="2.336" height="2.335"/>
	<rect x="104.172" y="104.363" fill="#FFFFFF" width="2.336" height="2.335"/>
	<rect x="103.965" y="97.18" fill="#E6E7E8" width="26.007" height="15.249"/>
	<g>
		<path fill="#414042" d="M130.86,113.408h-27.784V96.201h27.784V113.408z M105.034,111.45h23.868V98.159h-23.868V111.45z"/>
	</g>
	<g>
		<path fill="#414042" d="M116.969,107.981l-13.497-10.016c-0.435-0.322-0.525-0.935-0.204-1.369    c0.323-0.434,0.936-0.526,1.37-0.203l12.331,9.149l12.33-9.149c0.434-0.323,1.047-0.231,1.369,0.203    c0.323,0.434,0.232,1.047-0.203,1.369L116.969,107.981z"/>
	</g>
	<g>
		<path fill="#414042" d="M104.055,113.408c-0.242,0-0.484-0.089-0.674-0.268c-0.392-0.373-0.408-0.992-0.037-1.384l8.487-8.952    c0.372-0.392,0.993-0.408,1.384-0.037c0.392,0.372,0.408,0.992,0.037,1.384l-8.487,8.951    C104.573,113.305,104.314,113.408,104.055,113.408z"/>
	</g>
	<g>
		<path fill="#414042" d="M129.51,113.408c-0.259,0-0.518-0.103-0.71-0.305l-7.646-8.065c-0.372-0.393-0.355-1.012,0.037-1.384    c0.391-0.372,1.012-0.354,1.384,0.037l7.646,8.065c0.372,0.393,0.355,1.012-0.037,1.384    C129.994,113.318,129.752,113.408,129.51,113.408z"/>
	</g>
</g>
<g>
	<circle fill="#00D4FF" cx="287.95" cy="128.593" r="4.48"/>
	<g>
		<path fill="#414042" d="M309.551,150.001c-0.25,0-0.501-0.096-0.692-0.287l-11.028-11.026c-0.382-0.382-0.382-1.002,0-1.384    s1.002-0.382,1.384,0l11.027,11.026c0.383,0.382,0.383,1.002,0,1.384C310.052,149.905,309.801,150.001,309.551,150.001z"/>
	</g>
	<g>
		<path fill="#F1F2F2" d="M288.288,128.733l8.58,21.514c0.18,0.716,0.555,0.744,0.838,0.062l3.335-8.044    c0.143-0.342,0.409-0.709,0.726-1.025l-13.33-13.331C288.261,128.086,288.198,128.374,288.288,128.733z"/>
		<path fill="#FFFFFF" d="M310.774,136.34l-21.513-8.58c-0.358-0.089-0.648-0.027-0.824,0.149l13.33,13.331    c0.316-0.317,0.684-0.583,1.024-0.727l8.044-3.335C311.52,136.895,311.491,136.52,310.774,136.34z"/>
	</g>
	<g>
		<path fill="#414042" d="M297.263,151.781c-0.306,0-1.05-0.126-1.345-1.295l-8.58-21.516c-0.152-0.612-0.052-1.183,0.281-1.609    c0.414-0.529,1.12-0.741,1.88-0.551l0.125,0.041l21.458,8.558c1.042,0.288,1.205,0.96,1.225,1.24    c0.021,0.286-0.044,0.998-1.097,1.434l-8.043,3.334c-0.442,0.185-1.036,0.779-1.221,1.224l-3.335,8.042    C298.213,151.639,297.596,151.781,297.263,151.781z M289.403,128.87l7.902,19.833l2.832-6.813c0.381-0.916,1.36-1.896,2.276-2.28    l6.823-2.828L289.403,128.87z"/>
	</g>
	<g>
		<rect x="286.971" y="114.723" fill="#414042" width="1.958" height="6.347"/>
	</g>
	<g>
		
			<rect x="292.206" y="116.091" transform="matrix(0.8719 0.4897 -0.4897 0.8719 95.9647 -128.2948)" fill="#414042" width="1.957" height="6.346"/>
	</g>
	<g>
		
			<rect x="296.101" y="119.848" transform="matrix(0.5208 0.8537 -0.8537 0.5208 247.3983 -194.6618)" fill="#414042" width="1.958" height="6.347"/>
	</g>
	<g>
		
			<rect x="282.43" y="135.105" transform="matrix(0.9055 0.4244 -0.4244 0.9055 85.482 -107.2142)" fill="#414042" width="1.958" height="6.347"/>
	</g>
	<g>
		
			<rect x="278.272" y="131.643" transform="matrix(0.5818 0.8133 -0.8133 0.5818 226.441 -170.7446)" fill="#414042" width="1.959" height="6.347"/>
	</g>
	<g>
		
			<rect x="276.34" y="126.59" transform="matrix(0.1093 0.994 -0.994 0.1093 375.9903 -160.0772)" fill="#414042" width="1.957" height="6.346"/>
	</g>
	<g>
		
			<rect x="274.932" y="123.433" transform="matrix(0.9204 0.3909 -0.3909 0.9204 70.7511 -98.8036)" fill="#414042" width="6.346" height="1.958"/>
	</g>
	<g>
		
			<rect x="278.239" y="119.15" transform="matrix(0.6113 0.7914 -0.7914 0.6113 204.4485 -176.0135)" fill="#414042" width="6.345" height="1.958"/>
	</g>
</g>
<g>
	<rect x="132.665" y="221.809" fill="#F1F2F2" width="44.561" height="23.938"/>
	<g>
		<path fill="#414042" d="M178.204,246.727h-46.519v-25.897h46.519V246.727z M133.643,244.769h42.603v-21.981h-42.603V244.769z"/>
	</g>
	<g>
		<path fill="#414042" d="M170.718,243.072h-31.242v-0.979c0-1.235-0.74-2.278-1.616-2.278h-0.979v-12.141h0.979    c0.876,0,1.616-1.043,1.616-2.278v-0.979h31.242v0.979c0,1.235,0.74,2.278,1.617,2.278h0.979v12.141h-0.979    c-0.876,0-1.617,1.043-1.617,2.278V243.072z M141.337,241.114h27.519c0.299-1.49,1.264-2.678,2.5-3.095v-8.549    c-1.236-0.416-2.2-1.605-2.5-3.096h-27.519c-0.298,1.49-1.263,2.68-2.499,3.096v8.549    C140.074,238.437,141.039,239.624,141.337,241.114z"/>
	</g>
	<g>
		<path fill="#414042" d="M154.944,238.947c-2.885,0-5.232-2.346-5.232-5.231s2.347-5.232,5.232-5.232    c2.885,0,5.232,2.347,5.232,5.232S157.83,238.947,154.944,238.947z M154.944,230.441c-1.806,0-3.274,1.468-3.274,3.274    c0,1.806,1.468,3.274,3.274,3.274s3.275-1.469,3.275-3.274C158.219,231.909,156.75,230.441,154.944,230.441z"/>
	</g>
</g>
<g>
	<g>
		<g>
			<rect x="495.627" y="221.64" fill="#76C2D6" width="2.499" height="1.958"/>
		</g>
		<g>
			<path fill="#76C2D6" d="M547.893,223.598h-4.998v-1.958h4.998V223.598z M537.897,223.598h-4.999v-1.958h4.999V223.598z      M527.9,223.598h-4.999v-1.958h4.999V223.598z M517.904,223.598h-4.998v-1.958h4.998V223.598z M507.907,223.598h-4.997v-1.958     h4.997V223.598z"/>
		</g>
		<g>
			<rect x="550.758" y="221.64" fill="#76C2D6" width="2.498" height="1.958"/>
		</g>
	</g>
	<path fill="#FFFFFF" d="M526.149,209.521L526.149,209.521c-1.796-1.797-6.377-1.463-8.173,0.335l-9.303,9.306   c-1.796,1.794-1.127,5.375,0.67,7.172l0,0L526.149,209.521z"/>
	<path fill="#E6E7E8" d="M517.977,209.856l-9.303,9.306c-1.334,1.332-1.307,3.652-0.467,5.494l16.098-16.107   C522.182,207.997,519.312,208.521,517.977,209.856z"/>
	<path fill="#F1F2F2" d="M526.101,235.195L526.101,235.195c-1.797,1.799-6.376,1.465-8.172-0.334l-8.314-8.316l3.914-3.926   L526.101,235.195z"/>
	<path fill="#D1D3D4" d="M509.614,226.545l8.314,8.316c1.293,1.296,4.03,1.824,6.132,1.35l-12.057-12.062L509.614,226.545z"/>
	<g>
		<path fill="#414042" d="M509.344,227.719l-0.691-0.692c-1.033-1.032-1.767-2.587-1.962-4.159    c-0.222-1.781,0.235-3.344,1.291-4.396l9.303-9.307c1.118-1.118,3.118-1.813,5.22-1.813c1.845,0,3.384,0.525,4.338,1.479    l0.691,0.692L509.344,227.719z M522.504,209.309c-1.553,0-3.094,0.498-3.835,1.24l-9.304,9.306    c-0.608,0.609-0.877,1.619-0.732,2.771c0.1,0.802,0.384,1.59,0.793,2.243l15.184-15.191    C524.036,209.439,523.305,209.309,522.504,209.309z"/>
	</g>
	<g>
		
			<rect x="504.976" y="222.796" transform="matrix(0.7071 0.7071 -0.7071 0.7071 307.8575 -291.6273)" fill="#414042" width="1.957" height="6.015"/>
	</g>
	<g>
		<path fill="#414042" d="M500.429,236.847c-1.474,0-2.859-0.573-3.902-1.615c-1.041-1.042-1.616-2.428-1.614-3.902    c0-1.475,0.573-2.859,1.616-3.901c1.041-1.042,2.427-1.616,3.9-1.616c1.473,0,2.858,0.572,3.901,1.614    c2.152,2.151,2.152,5.652,0.001,7.806C503.288,236.273,501.903,236.847,500.429,236.847z M500.429,227.77    c-0.95,0-1.844,0.37-2.517,1.043c-0.673,0.672-1.042,1.566-1.042,2.517c0,0.951,0.369,1.846,1.041,2.518    c1.347,1.344,3.691,1.341,5.036,0c1.388-1.39,1.388-3.647,0-5.036C502.273,228.14,501.379,227.77,500.429,227.77z"/>
	</g>
	<g>
		<path fill="#414042" d="M522.454,237.367c-2.102,0-4.102-0.694-5.218-1.813l-9.005-9.008l5.296-5.313l13.958,13.962l-0.692,0.692    C525.84,236.842,524.299,237.367,522.454,237.367z M510.997,226.543l7.623,7.626c0.742,0.742,2.282,1.24,3.834,1.24    c0.801,0,1.532-0.131,2.107-0.369l-11.032-11.035L510.997,226.543z"/>
	</g>
	<g>
		
			<rect x="502.897" y="217.936" transform="matrix(0.7071 0.7071 -0.7071 0.7071 302.972 -293.6101)" fill="#414042" width="6.016" height="1.957"/>
	</g>
	<g>
		<path fill="#414042" d="M500.38,218.906L500.38,218.906c-1.474,0-2.857-0.573-3.9-1.616c-1.042-1.041-1.616-2.427-1.616-3.901    c-0.001-1.475,0.574-2.86,1.615-3.901c1.042-1.043,2.428-1.616,3.901-1.616s2.857,0.573,3.9,1.616c2.151,2.15,2.151,5.651,0,7.804    C503.236,218.333,501.852,218.906,500.38,218.906z M500.38,209.828c-0.951,0-1.845,0.371-2.518,1.043    c-0.672,0.672-1.041,1.566-1.041,2.518c0,0.95,0.369,1.846,1.043,2.518c1.346,1.346,3.686,1.344,5.031,0.001    c1.389-1.39,1.389-3.648,0-5.036C502.223,210.199,501.329,209.828,500.38,209.828z"/>
	</g>
</g>
<g>
	<rect x="529.973" y="151.998" fill="#00D4FF" width="33.582" height="20.019"/>
	<rect x="529.973" y="156.521" fill="#F1F2F2" width="33.582" height="3.501"/>
	<g>
		<path fill="#414042" d="M564.533,172.996h-35.539V151.02h35.539V172.996z M530.952,171.038h31.623v-18.061h-31.623V171.038z"/>
	</g>
	<g>
		<rect x="529.973" y="159.62" fill="#414042" width="33.582" height="1.958"/>
	</g>
	<g>
		<rect x="529.973" y="155.052" fill="#414042" width="33.582" height="1.958"/>
	</g>
	<g>
		<rect x="532.925" y="167.199" fill="#414042" width="9.292" height="1.957"/>
	</g>
	<g>
		<rect x="544.512" y="167.199" fill="#414042" width="9.292" height="1.957"/>
	</g>
	<g>
		<rect x="532.975" y="162.935" fill="#414042" width="13.791" height="1.957"/>
	</g>
	<g>
		<rect x="549.208" y="162.935" fill="#414042" width="9.646" height="1.957"/>
	</g>
</g>
<g>
	<g>
		<g>
			<path fill="#414042" d="M95.28,199.818c-5.83,0-11.31-2.271-15.43-6.391c-4.121-4.122-6.391-9.604-6.391-15.432     c0-5.829,2.27-11.309,6.391-15.429c4.124-4.122,9.604-6.393,15.43-6.393s11.306,2.271,15.43,6.393     c3.638,3.638,5.879,8.454,6.313,13.56l-1.952,0.166c-0.394-4.647-2.435-9.03-5.745-12.342c-3.754-3.752-8.742-5.818-14.046-5.818     s-10.292,2.066-14.046,5.818c-3.751,3.751-5.818,8.738-5.818,14.045c0,5.306,2.066,10.295,5.818,14.047     c3.751,3.751,8.739,5.817,14.046,5.817V199.818z"/>
		</g>
		<g>
			<g>
				<polygon fill="#414042" points="113.229,173.236 116.009,175.75 118.522,172.969 118.636,175.218 116.123,177.996       113.343,175.483     "/>
			</g>
		</g>
	</g>
	<circle fill="#00D4FF" cx="95.28" cy="177.996" r="16.83"/>
	<g>
		<path fill="#414042" d="M95.28,195.807c-9.82,0-17.809-7.99-17.809-17.811c0-9.819,7.989-17.809,17.809-17.809    s17.809,7.989,17.809,17.809C113.089,187.816,105.1,195.807,95.28,195.807z M95.28,162.146c-8.74,0-15.851,7.11-15.851,15.851    c0,8.741,7.111,15.854,15.851,15.854s15.852-7.112,15.852-15.854C111.132,169.256,104.021,162.146,95.28,162.146z"/>
	</g>
	<g>
		<rect x="94.264" y="163.503" fill="#414042" width="1.958" height="3.517"/>
	</g>
	<g>
		
			<rect x="100.646" y="165.196" transform="matrix(0.8654 0.501 -0.501 0.8654 97.3217 -28.4503)" fill="#414042" width="1.959" height="3.517"/>
	</g>
	<g>
		
			<rect x="105.324" y="169.858" transform="matrix(0.4985 0.8669 -0.8669 0.4985 202.077 -6.0903)" fill="#414042" width="1.958" height="3.516"/>
	</g>
	<g>
		
			<rect x="106.258" y="177.015" transform="matrix(1 0.0031 -0.0031 1 0.5442 -0.3291)" fill="#414042" width="3.517" height="1.957"/>
	</g>
	<g>
		
			<rect x="104.547" y="183.393" transform="matrix(0.8639 0.5037 -0.5037 0.8639 107.3422 -28.449)" fill="#414042" width="3.517" height="1.957"/>
	</g>
	<g>
		
			<rect x="99.872" y="188.057" transform="matrix(0.496 0.8683 -0.8683 0.496 215.3706 7.03)" fill="#414042" width="3.516" height="1.958"/>
	</g>
	<g>
		
			<rect x="94.269" y="188.973" transform="matrix(1 0.0055 -0.0055 1 1.0478 -0.5197)" fill="#414042" width="1.958" height="3.515"/>
	</g>
	<g>
		
			<rect x="87.896" y="187.244" transform="matrix(0.8628 0.5055 -0.5055 0.8628 107.7353 -18.9998)" fill="#414042" width="1.957" height="3.517"/>
	</g>
	<g>
		
			<rect x="83.245" y="182.556" transform="matrix(0.4933 0.8699 -0.8699 0.4933 203.005 20.1302)" fill="#414042" width="1.958" height="3.514"/>
	</g>
	<g>
		
			<rect x="80.788" y="176.948" transform="matrix(1 0.0086 -0.0086 1 1.5354 -0.7043)" fill="#414042" width="3.515" height="1.958"/>
	</g>
	<g>
		
			<rect x="82.535" y="170.58" transform="matrix(0.8615 0.5077 -0.5077 0.8615 98.7802 -19.0394)" fill="#414042" width="3.514" height="1.959"/>
	</g>
	<g>
		
			<rect x="87.235" y="165.944" transform="matrix(0.4911 0.8711 -0.8711 0.4911 190.6913 7.4232)" fill="#414042" width="3.515" height="1.958"/>
	</g>
	<g>
		<path fill="#FFFFFF" d="M93.518,175.374c0,0.502-0.091,1.01-0.273,1.521c-0.182,0.511-0.414,1.013-0.693,1.503    c-0.28,0.493-0.589,0.967-0.929,1.428c-0.34,0.455-0.671,0.874-0.996,1.258l-0.782,0.606v0.073l1.063-0.209h2.832v1.625h-6.211    v-0.988c0.236-0.245,0.501-0.532,0.796-0.863c0.295-0.329,0.593-0.679,0.893-1.047c0.299-0.37,0.592-0.752,0.877-1.144    c0.286-0.394,0.542-0.791,0.769-1.188c0.225-0.399,0.404-0.784,0.538-1.159c0.133-0.373,0.199-0.728,0.199-1.059    c0-0.406-0.115-0.738-0.346-0.998c-0.231-0.261-0.598-0.392-1.1-0.392c-0.315,0-0.638,0.066-0.966,0.2    c-0.33,0.133-0.607,0.302-0.834,0.51l-0.768-1.356c0.383-0.317,0.819-0.569,1.306-0.762c0.486-0.194,1.06-0.288,1.718-0.288    c0.423,0,0.812,0.059,1.166,0.176c0.354,0.118,0.659,0.29,0.915,0.519c0.256,0.227,0.457,0.51,0.605,0.847    C93.444,174.527,93.518,174.924,93.518,175.374z"/>
		<path fill="#FFFFFF" d="M103.033,180.303h-1.623v2.877h-1.784v-2.877h-4.471v-1.091l4.677-6.433h1.578v5.989h1.623V180.303z     M99.626,176.513l0.133-1.242h-0.06l-0.501,1.063l-1.535,1.991l-0.737,0.561l0.944-0.117h1.756V176.513z"/>
	</g>
</g>
<g>
	<path fill="#FFFFFF" d="M433.607,239.28c-0.763-3.959-3.118-9.854-10.478-9.842c-8.55,0.006-10.485,5.887-10.844,9.837h-0.012   c-1.378,0-2.49,1.114-2.49,2.489v3.352c0,1.374,1.112,2.487,2.49,2.487h0.039c0.04,0,0.082-0.009,0.116-0.012   c0.8,6.215,5.279,10.985,10.7,10.985c5.431,0,9.91-4.774,10.705-10.999c1.245-0.138,2.22-1.181,2.22-2.462v-3.352   C436.055,240.403,434.962,239.301,433.607,239.28z"/>
	<path fill="#6D6E71" d="M423.13,229.438c-7.895,0.006-10.146,5.019-10.728,8.898l0.232,0.119c0,0,7.013,2.532,10.458-2.739   c0.401-0.614,1.099-0.784,1.703-0.366c1.638,1.13,4.917,3.015,8.107,2.64c0,0,0.139-0.042,0.379-0.116   C432.248,234.063,429.657,229.427,423.13,229.438z"/>
	<g>
		<path fill="#414042" d="M423.13,259.557c-5.652,0-10.405-4.601-11.55-11.05c-1.595-0.332-2.775-1.726-2.775-3.391v-3.352    c0-1.61,1.104-2.969,2.596-3.356c0.554-4.037,2.88-9.942,11.729-9.949c5.859,0,9.842,3.525,11.297,9.949    c1.493,0.385,2.607,1.752,2.607,3.356v3.352c0,1.498-0.959,2.789-2.327,3.264C433.602,254.896,428.822,259.557,423.13,259.557z     M413.2,246.556l0.201,0.911c0.741,5.776,4.925,10.132,9.729,10.132c4.811,0,8.995-4.361,9.734-10.145l0.098-0.765l0.767-0.084    c0.767-0.086,1.347-0.726,1.347-1.489v-3.352c0-0.818-0.665-1.493-1.483-1.506l-0.795-0.011l-0.15-0.783    c-0.796-4.127-3.088-9.048-9.495-9.048c-7.508,0.005-9.521,4.869-9.891,8.946l-0.08,0.891h-0.895    c-0.846,0-1.523,0.679-1.523,1.511v3.352c0,0.831,0.678,1.508,1.512,1.508L413.2,246.556z"/>
	</g>
	<g>
		<path fill="#414042" d="M420.682,243.624h-3.558c-0.54,0-0.979-0.438-0.979-0.979c0-0.541,0.438-0.979,0.979-0.979h3.558    c0.54,0,0.979,0.438,0.979,0.979C421.66,243.186,421.222,243.624,420.682,243.624z"/>
	</g>
	<g>
		<path fill="#414042" d="M428.869,243.624h-3.56c-0.54,0-0.979-0.438-0.979-0.979c0-0.541,0.438-0.979,0.979-0.979h3.56    c0.541,0,0.979,0.438,0.979,0.979C429.849,243.186,429.41,243.624,428.869,243.624z"/>
	</g>
	<path fill="#00D4FF" d="M412.286,248.84h-2.972c-1.814,0-3.285-1.471-3.285-3.289v-4.007c0-1.815,1.471-3.288,3.285-3.288h2.972   V248.84z"/>
	<path fill="#66E5FF" d="M409.784,238.264v10.571c0.018,0,0.038,0.005,0.057,0.005h2.445v-10.584h-2.445   C409.822,238.256,409.802,238.264,409.784,238.264z"/>
	<g>
		<path fill="#414042" d="M413.265,249.818h-3.95c-2.352,0-4.265-1.914-4.265-4.268v-4.007c0-2.353,1.913-4.268,4.265-4.268h3.95    V249.818z M409.314,239.234c-1.271,0-2.307,1.036-2.307,2.31v4.007c0,1.273,1.035,2.31,2.307,2.31h1.992v-8.626H409.314z"/>
	</g>
	<path fill="#00D4FF" d="M433.358,248.84h2.974c1.813,0,3.286-1.471,3.286-3.289v-4.007c0-1.815-1.474-3.288-3.286-3.288h-2.974   V248.84z"/>
	<path fill="#66E5FF" d="M435.74,238.264c-0.015,0-0.034-0.008-0.052-0.008h-2.33v10.584h2.33c0.018,0,0.037-0.005,0.052-0.005   V238.264z"/>
	<g>
		<path fill="#414042" d="M436.332,249.818h-3.952v-12.542h3.952c2.352,0,4.265,1.915,4.265,4.268v4.007    C440.597,247.904,438.684,249.818,436.332,249.818z M434.338,247.86h1.994c1.272,0,2.307-1.036,2.307-2.31v-4.007    c0-1.273-1.034-2.31-2.307-2.31h-1.994V247.86z"/>
	</g>
	<g>
		<path fill="#414042" d="M436.428,238.876c-0.54,0-0.979-0.438-0.979-0.979c0-6.909-5.621-12.53-12.531-12.53    s-12.534,5.621-12.534,12.53c0,0.54-0.438,0.979-0.979,0.979s-0.979-0.438-0.979-0.979c0-7.989,6.501-14.488,14.491-14.488    c7.989,0,14.488,6.499,14.488,14.488C437.406,238.438,436.968,238.876,436.428,238.876z"/>
	</g>
	<g>
		<path fill="#414042" d="M434.725,254.21h-10.993c-0.54,0-0.979-0.438-0.979-0.979c0-0.54,0.438-0.979,0.979-0.979h10.993    c0.347,0,0.629-0.28,0.629-0.626v-2.786c0-0.541,0.438-0.979,0.979-0.979c0.541,0,0.979,0.438,0.979,0.979v2.786    C437.311,253.051,436.151,254.21,434.725,254.21z"/>
	</g>
	<g>
		<path fill="#414042" d="M416.335,240.048c-1.581,0-3.03-0.31-4.032-0.672c-0.508-0.184-0.771-0.743-0.588-1.25    c0.181-0.51,0.74-0.771,1.252-0.592c0.256,0.092,6.333,2.198,9.307-2.353c0.348-0.533,0.857-0.889,1.434-1.001    c0.566-0.11,1.147,0.02,1.646,0.364c1.548,1.068,4.586,2.818,7.437,2.473c0.539-0.056,1.023,0.321,1.087,0.858    c0.063,0.538-0.321,1.023-0.857,1.087c-3.503,0.403-7.002-1.582-8.778-2.807c-0.037-0.025-0.1-0.066-0.155-0.055    c-0.041,0.008-0.107,0.051-0.172,0.15C421.997,239.183,418.981,240.048,416.335,240.048z"/>
	</g>
</g>
</svg>
